<svg viewBox="0 0 30 31" fill="none" xmlns="http://www.w3.org/2000/svg"><path d="M26.85 10.102L25.66 3.60196C25.434 2.55932 24.8504 1.62861 24.0102 0.971103C23.1701 0.313599 22.1264 -0.0292551 21.06 0.00195767H8.94C7.87361 -0.0292551 6.82991 0.313599 5.98977 0.971103C5.14962 1.62861 4.56599 2.55932 4.34 3.60196L3.15 10.102C2.25909 10.2957 1.4611 10.788 0.888226 11.4973C0.315351 12.2065 0.00197078 13.0902 0 14.002V22.002C0.00287235 22.8865 0.298871 23.7452 0.841689 24.4436C1.38451 25.142 2.14352 25.6408 3 25.862V28.002C3 28.5324 3.21071 29.0411 3.58579 29.4162C3.96086 29.7912 4.46957 30.002 5 30.002C5.53043 30.002 6.03914 29.7912 6.41421 29.4162C6.78929 29.0411 7 28.5324 7 28.002V26.002H23V28.002C23 28.5324 23.2107 29.0411 23.5858 29.4162C23.9609 29.7912 24.4696 30.002 25 30.002C25.5304 30.002 26.0391 29.7912 26.4142 29.4162C26.7893 29.0411 27 28.5324 27 28.002V25.862C27.8565 25.6408 28.6155 25.142 29.1583 24.4436C29.7011 23.7452 29.9971 22.8865 30 22.002V14.002C29.998 13.0902 29.6846 12.2065 29.1118 11.4973C28.5389 10.788 27.7409 10.2957 26.85 10.102ZM6.31 4.00196C6.44332 3.4126 6.78004 2.88907 7.26101 2.52331C7.74198 2.15755 8.33645 1.97296 8.94 2.00196H21.06C21.6635 1.97296 22.258 2.15755 22.739 2.52331C23.22 2.88907 23.5567 3.4126 23.69 4.00196L24.8 10.002H5.2L6.31 4.00196ZM9 18.002H5V16.002C5 15.4715 5.21071 14.9628 5.58579 14.5877C5.96086 14.2127 6.46957 14.002 7 14.002C7.53043 14.002 8.03914 14.2127 8.41421 14.5877C8.78929 14.9628 9 15.4715 9 16.002V18.002ZM25 18.002H21V16.002C21 15.4715 21.2107 14.9628 21.5858 14.5877C21.9609 14.2127 22.4696 14.002 23 14.002C23.5304 14.002 24.0391 14.2127 24.4142 14.5877C24.7893 14.9628 25 15.4715 25 16.002V18.002Z" fill="#00383D"/></svg>