<svg viewBox="0 0 22 22" fill="none" xmlns="http://www.w3.org/2000/svg">
<path d="M16.5 3.66669H5.50004C4.52758 3.66669 3.59495 4.053 2.90732 4.74063C2.21968 5.42826 1.83337 6.36089 1.83337 7.33335V14.6667C1.83337 15.6391 2.21968 16.5718 2.90732 17.2594C3.59495 17.947 4.52758 18.3334 5.50004 18.3334H16.5C17.4725 18.3334 18.4051 17.947 19.0928 17.2594C19.7804 16.5718 20.1667 15.6391 20.1667 14.6667V7.33335C20.1667 6.36089 19.7804 5.42826 19.0928 4.74063C18.4051 4.053 17.4725 3.66669 16.5 3.66669ZM16.5 5.50002C16.8894 5.5013 17.2683 5.62651 17.5817 5.85752L11.5592 11.2384C11.4031 11.351 11.2155 11.4116 11.023 11.4116C10.8305 11.4116 10.6428 11.351 10.4867 11.2384L4.41837 5.85752C4.73182 5.62651 5.11067 5.5013 5.50004 5.50002H16.5ZM16.5 16.5H5.50004C5.01381 16.5 4.54749 16.3069 4.20368 15.963C3.85986 15.6192 3.66671 15.1529 3.66671 14.6667V7.64502L9.31337 12.6775C9.78817 13.0532 10.3763 13.2567 10.9817 13.255C11.618 13.2541 12.2351 13.0376 12.7325 12.6409L18.3334 7.64502V14.6667C18.3334 15.1529 18.1402 15.6192 17.7964 15.963C17.4526 16.3069 16.9863 16.5 16.5 16.5Z" fill="#97C5CA"/>
</svg>
