<svg viewBox="0 0 18 18" fill="none" xmlns="http://www.w3.org/2000/svg">
<path d="M16.5 12H15.75V4.6275C15.7662 4.01407 15.5383 3.41927 15.1165 2.97358C14.6948 2.52788 14.1134 2.26766 13.5 2.25H4.50001C3.88662 2.26766 3.30528 2.52788 2.88348 2.97358C2.46168 3.41927 2.23387 4.01407 2.25001 4.6275V12H1.50001C1.3011 12 1.11033 12.079 0.969682 12.2197C0.82903 12.3603 0.750013 12.5511 0.750013 12.75V13.125C0.749442 13.2237 0.768361 13.3216 0.805684 13.4129C0.843008 13.5043 0.898001 13.5874 0.967513 13.6575L1.34251 14.0325C1.41259 14.102 1.4957 14.157 1.58708 14.1943C1.67846 14.2317 1.77631 14.2506 1.87501 14.25H16.125C16.2237 14.2506 16.3216 14.2317 16.4129 14.1943C16.5043 14.157 16.5874 14.102 16.6575 14.0325L17.0325 13.6575C17.102 13.5874 17.157 13.5043 17.1943 13.4129C17.2317 13.3216 17.2506 13.2237 17.25 13.125V12.75C17.25 12.5511 17.171 12.3603 17.0303 12.2197C16.8897 12.079 16.6989 12 16.5 12ZM10.71 12.2175C10.2248 12.599 9.61607 12.7886 9.00001 12.75C8.36983 12.7804 7.74969 12.5834 7.25251 12.195C7.11496 12.07 6.93589 12.0005 6.75001 12H3.75001V4.6275C3.73344 4.41176 3.80309 4.19824 3.94367 4.03376C4.08426 3.86927 4.28432 3.76723 4.50001 3.75H13.5C13.7157 3.76723 13.9158 3.86927 14.0564 4.03376C14.1969 4.19824 14.2666 4.41176 14.25 4.6275V12H11.25C11.1501 11.9984 11.0508 12.0169 10.958 12.0542C10.8653 12.0916 10.781 12.1471 10.71 12.2175Z" fill="#333"/>
<path d="M12.75 9.75H12V6C12 5.80109 11.921 5.61032 11.7803 5.46967C11.6397 5.32902 11.4489 5.25 11.25 5.25C11.0511 5.25 10.8603 5.32902 10.7197 5.46967C10.579 5.61032 10.5 5.80109 10.5 6V9.75H9.75V7.5C9.75 7.30109 9.67098 7.11032 9.53033 6.96967C9.38968 6.82902 9.19891 6.75 9 6.75C8.80109 6.75 8.61032 6.82902 8.46967 6.96967C8.32902 7.11032 8.25 7.30109 8.25 7.5V9.75H7.5V8.25C7.5 8.05109 7.42098 7.86032 7.28033 7.71967C7.13968 7.57902 6.94891 7.5 6.75 7.5C6.55109 7.5 6.36032 7.57902 6.21967 7.71967C6.07902 7.86032 6 8.05109 6 8.25V9.75H5.25C5.05109 9.75 4.86032 9.82902 4.71967 9.96967C4.57902 10.1103 4.5 10.3011 4.5 10.5C4.5 10.6989 4.57902 10.8897 4.71967 11.0303C4.86032 11.171 5.05109 11.25 5.25 11.25H12.75C12.9489 11.25 13.1397 11.171 13.2803 11.0303C13.421 10.8897 13.5 10.6989 13.5 10.5C13.5 10.3011 13.421 10.1103 13.2803 9.96967C13.1397 9.82902 12.9489 9.75 12.75 9.75Z" fill="#333"/>
</svg>
