<svg viewBox="0 0 30 27" fill="none" xmlns="http://www.w3.org/2000/svg"><path d="M29.5094 7.21L26.7994 3.42C26.7994 3.42 26.7394 3.36 26.7094 3.33C26.6951 3.30231 26.6746 3.27834 26.6494 3.26C26.5698 3.1857 26.4786 3.1249 26.3794 3.08L19.3794 0.0799999C19.2561 0.0274634 19.1234 0.000257734 18.9894 0H10.9894C10.8553 0.000257734 10.7227 0.0274634 10.5994 0.0799999L3.59939 3.08C3.5002 3.1249 3.40899 3.1857 3.32939 3.26L3.25939 3.33C3.25939 3.33 3.19939 3.38 3.17939 3.42L0.429395 7.26C0.108956 7.7926 -0.0381395 8.41158 0.00843643 9.0314C0.0550124 9.65122 0.29296 10.2413 0.689395 10.72L11.4494 24.38C11.8887 24.8914 12.4334 25.3019 13.0461 25.5833C13.6589 25.8647 14.3251 26.0104 14.9994 26.0104C15.6736 26.0104 16.3399 25.8647 16.9526 25.5833C17.5654 25.3019 18.11 24.8914 18.5494 24.38L29.2794 10.74C29.6869 10.2519 29.9287 9.64698 29.97 9.01251C30.0114 8.37804 29.8501 7.74684 29.5094 7.21ZM21.5094 11.53L20.1894 7.53L25.5994 5.21L27.5994 8.04C27.538 8.05548 27.4778 8.07554 27.4194 8.1L21.5094 11.53ZM2.48939 8.13C2.43097 8.10554 2.37081 8.08548 2.30939 8.07L4.30939 5.24L9.71939 7.56L8.39939 11.56L2.48939 8.13ZM11.7094 8H18.2694L19.5994 12H10.3794L11.7094 8ZM11.1994 2H18.7794L23.4494 4L18.7794 6H11.1994L6.52939 4L11.1994 2ZM3.42939 11L8.20939 13.73L11.7994 21.61L3.42939 11ZM14.9894 24C14.9977 23.8588 14.9702 23.7178 14.9094 23.59L10.5394 14H19.4394L15.0794 23.59C15.0152 23.7168 14.9842 23.8579 14.9894 24ZM18.1894 21.59L21.7794 13.71L26.5494 11L18.1894 21.59Z" fill="#333"/></svg>