<svg viewBox="0 0 25 24" fill="none" xmlns="http://www.w3.org/2000/svg">
<path d="M13.9102 12.9995H18.9102C19.0934 12.9986 19.2728 12.9475 19.429 12.8516C19.5851 12.7557 19.7118 12.6187 19.7954 12.4557C19.879 12.2926 19.9162 12.1098 19.9029 11.927C19.8896 11.7443 19.8264 11.5687 19.7202 11.4195L14.7202 4.41946C14.5966 4.24872 14.4222 4.12141 14.2219 4.0557C14.0216 3.98999 13.8057 3.98924 13.605 4.05356C13.4043 4.11788 13.229 4.24398 13.1042 4.41385C12.9794 4.58373 12.9115 4.78868 12.9102 4.99946V11.9995C12.9102 12.2647 13.0155 12.519 13.203 12.7066C13.3906 12.8941 13.6449 12.9995 13.9102 12.9995Z" fill="#fff"/>
<path d="M4.91016 13H7.91016C8.17537 13 8.42973 12.8946 8.61726 12.7071C8.8048 12.5196 8.91016 12.2652 8.91016 12V8C8.91016 7.79012 8.84412 7.58556 8.7214 7.41529C8.59868 7.24502 8.4255 7.11769 8.22638 7.05132C8.02727 6.98495 7.81232 6.98291 7.61199 7.04549C7.41165 7.10807 7.23609 7.23209 7.11016 7.4L4.11016 11.4C3.99873 11.5486 3.93088 11.7252 3.9142 11.9102C3.89752 12.0952 3.93268 12.2811 4.01573 12.4472C4.09878 12.6133 4.22645 12.753 4.38443 12.8507C4.5424 12.9483 4.72444 13 4.91016 13Z" fill="#fff"/>
<path d="M22.9102 19C22.4583 19.0037 22.0157 18.8713 21.6402 18.62C21.1385 18.327 20.5851 18.1335 20.0102 18.05C20.3905 17.3258 20.6666 16.5515 20.8302 15.75L23.2302 14.95C23.4821 14.8651 23.69 14.6836 23.8082 14.4455C23.9263 14.2073 23.945 13.932 23.8602 13.68C23.7753 13.428 23.5938 13.2201 23.3556 13.102C23.1175 12.9838 22.8421 12.9651 22.5902 13.05L19.7502 14H11.9102V4C11.9102 3.73478 11.8048 3.48043 11.6173 3.29289C11.4297 3.10536 11.1754 3 10.9102 3C10.6449 3 10.3906 3.10536 10.203 3.29289C10.0155 3.48043 9.91016 3.73478 9.91016 4V14H3.91016C3.64494 14 3.39059 14.1054 3.20305 14.2929C3.01551 14.4804 2.91016 14.7348 2.91016 15C3.00651 16.2977 3.45227 17.5451 4.20016 18.61C3.8201 18.8687 3.3699 19.0049 2.91016 19C2.64494 19 2.39059 19.1054 2.20305 19.2929C2.01551 19.4804 1.91016 19.7348 1.91016 20C1.91016 20.2652 2.01551 20.5196 2.20305 20.7071C2.39059 20.8946 2.64494 21 2.91016 21C3.69703 21.0074 4.47 20.7925 5.14016 20.38C5.51572 20.1287 5.95827 19.9963 6.41016 20C6.57292 19.9825 6.73754 20.0002 6.89285 20.0519C7.04815 20.1037 7.19048 20.1883 7.31016 20.3C7.89533 20.7925 8.64652 21.0429 9.41016 21C10.197 21.0074 10.97 20.7925 11.6402 20.38C12.0172 20.1318 12.4587 19.9996 12.9102 19.9996C13.3616 19.9996 13.8031 20.1318 14.1802 20.38C14.8503 20.7925 15.6233 21.0074 16.4102 21C17.1738 21.0429 17.925 20.7925 18.5102 20.3C18.6302 20.1889 18.7726 20.1046 18.9278 20.0529C19.083 20.0011 19.2474 19.9831 19.4102 20C19.862 19.9963 20.3046 20.1287 20.6802 20.38C21.3503 20.7925 22.1233 21.0074 22.9102 21C23.1754 21 23.4297 20.8946 23.6173 20.7071C23.8048 20.5196 23.9102 20.2652 23.9102 20C23.9102 19.7348 23.8048 19.4804 23.6173 19.2929C23.4297 19.1054 23.1754 19 22.9102 19ZM12.9102 18C12.1233 17.9926 11.3503 18.2075 10.6802 18.62C10.3046 18.8713 9.86204 19.0037 9.41016 19C9.2474 19.0175 9.08277 18.9998 8.92747 18.9481C8.77217 18.8963 8.62984 18.8117 8.51016 18.7C7.92498 18.2075 7.17379 17.9571 6.41016 18H6.27016C5.74565 17.4234 5.35019 16.7416 5.11016 16H18.7102C18.3719 17.2371 17.5884 18.3055 16.5102 19H16.4102C15.9583 19.0037 15.5157 18.8713 15.1402 18.62C14.47 18.2075 13.697 17.9926 12.9102 18Z" fill="#fff"/>
</svg>
