<svg viewBox="0 0 24 24" fill="none" xmlns="http://www.w3.org/2000/svg">
<path d="M9 15C12.3137 15 15 13.8807 15 12.5C15 11.1193 12.3137 10 9 10C5.68629 10 3 11.1193 3 12.5C3 13.8807 5.68629 15 9 15Z" fill="#00383D"/>
<path d="M13.5102 15.2C12.085 15.7985 10.5443 16.0718 9.00024 16C7.46168 16.0775 5.92742 15.7789 4.53024 15.13C4.3048 14.9894 4.03276 14.9442 3.77396 15.0042C3.51516 15.0642 3.2908 15.2245 3.15024 15.45C3.00967 15.6754 2.96442 15.9474 3.02443 16.2062C3.08444 16.465 3.2448 16.6894 3.47024 16.83C5.18411 17.6838 7.08741 18.0865 9.00024 18C10.8824 18.0874 12.7598 17.7454 14.4902 17C14.6051 16.9343 14.706 16.8467 14.787 16.742C14.8681 16.6374 14.9277 16.5178 14.9625 16.3901C14.9973 16.2625 15.0067 16.1292 14.99 15.9979C14.9733 15.8666 14.9309 15.7399 14.8652 15.625C14.7996 15.5101 14.7119 15.4092 14.6073 15.3282C14.5027 15.2472 14.3831 15.1875 14.2554 15.1527C13.9975 15.0824 13.7223 15.1174 13.4902 15.25L13.5102 15.2Z" fill="#333"/>
<path d="M13.5102 18.2C12.085 18.7985 10.5443 19.0718 9.00024 19C7.46168 19.0775 5.92742 18.7789 4.53024 18.13C4.3048 17.9894 4.03276 17.9442 3.77396 18.0042C3.51516 18.0642 3.2908 18.2245 3.15024 18.45C3.00967 18.6754 2.96442 18.9474 3.02443 19.2062C3.08444 19.465 3.2448 19.6894 3.47024 19.83C5.2054 20.6842 7.12813 21.0867 9.06024 21C10.9232 21.0903 12.7817 20.748 14.4902 20C14.6051 19.9343 14.706 19.8467 14.787 19.742C14.8681 19.6374 14.9277 19.5178 14.9625 19.3901C14.9973 19.2625 15.0067 19.1292 14.99 18.9979C14.9733 18.8666 14.9309 18.7399 14.8652 18.625C14.7996 18.5101 14.7119 18.4092 14.6073 18.3282C14.5027 18.2472 14.3831 18.1875 14.2554 18.1527C13.9975 18.0824 13.7223 18.1174 13.4902 18.25L13.5102 18.2Z" fill="#333"/>
<path d="M20 6H18V4C18 3.73478 17.8946 3.48043 17.7071 3.29289C17.5196 3.10536 17.2652 3 17 3C16.7348 3 16.4804 3.10536 16.2929 3.29289C16.1054 3.48043 16 3.73478 16 4V6H14C13.7348 6 13.4804 6.10536 13.2929 6.29289C13.1054 6.48043 13 6.73478 13 7C13 7.26522 13.1054 7.51957 13.2929 7.70711C13.4804 7.89464 13.7348 8 14 8H16V10C16 10.2652 16.1054 10.5196 16.2929 10.7071C16.4804 10.8946 16.7348 11 17 11C17.2652 11 17.5196 10.8946 17.7071 10.7071C17.8946 10.5196 18 10.2652 18 10V8H20C20.2652 8 20.5196 7.89464 20.7071 7.70711C20.8946 7.51957 21 7.26522 21 7C21 6.73478 20.8946 6.48043 20.7071 6.29289C20.5196 6.10536 20.2652 6 20 6Z" fill="#333"/>
</svg>
