<svg id="DESIGN" viewBox="0 0 24 24" fill="none" xmlns="http://www.w3.org/2000/svg">
<path d="M20.57 2.18C20.4378 2.08716 20.285 2.02775 20.1248 2.00685C19.9645 1.98595 19.8016 2.00419 19.65 2.06L13 4.56V3C12.9997 2.83878 12.9605 2.68002 12.8856 2.53724C12.8108 2.39446 12.7025 2.2719 12.57 2.18C12.4378 2.08716 12.285 2.02775 12.1248 2.00685C11.9645 1.98595 11.8016 2.00419 11.65 2.06L3.65001 5.06C3.4586 5.13152 3.2937 5.25994 3.17749 5.428C3.06128 5.59606 2.99934 5.79568 3.00001 6V21C3.00001 21.2652 3.10536 21.5196 3.2929 21.7071C3.48043 21.8946 3.73479 22 4.00001 22H20C20.2652 22 20.5196 21.8946 20.7071 21.7071C20.8946 21.5196 21 21.2652 21 21V3C20.9997 2.83878 20.9605 2.68002 20.8856 2.53724C20.8108 2.39446 20.7025 2.2719 20.57 2.18ZM19 20H13V18C13 17.7348 12.8946 17.4804 12.7071 17.2929C12.5196 17.1054 12.2652 17 12 17C11.7348 17 11.4804 17.1054 11.2929 17.2929C11.1054 17.4804 11 17.7348 11 18V20H5.00001V6.69L11 4.44V6C11.0003 6.16122 11.0395 6.31999 11.1144 6.46277C11.1893 6.60555 11.2975 6.72811 11.43 6.82C11.5623 6.91284 11.715 6.97226 11.8752 6.99316C12.0355 7.01405 12.1984 6.99582 12.35 6.94L19 4.44V20Z" fill="#333"/>
<path d="M17 14H7C6.73478 14 6.48043 14.1054 6.29289 14.2929C6.10536 14.4804 6 14.7348 6 15C6 15.2652 6.10536 15.5196 6.29289 15.7071C6.48043 15.8946 6.73478 16 7 16H17C17.2652 16 17.5196 15.8946 17.7071 15.7071C17.8946 15.5196 18 15.2652 18 15C18 14.7348 17.8946 14.4804 17.7071 14.2929C17.5196 14.1054 17.2652 14 17 14Z" fill="#333"/>
<path d="M17 11H7C6.73478 11 6.48043 11.1054 6.29289 11.2929C6.10536 11.4804 6 11.7348 6 12C6 12.2652 6.10536 12.5196 6.29289 12.7071C6.48043 12.8946 6.73478 13 7 13H17C17.2652 13 17.5196 12.8946 17.7071 12.7071C17.8946 12.5196 18 12.2652 18 12C18 11.7348 17.8946 11.4804 17.7071 11.2929C17.5196 11.1054 17.2652 11 17 11Z" fill="#333"/>
<path d="M6 9C6 9.26522 6.10536 9.51957 6.29289 9.70711C6.48043 9.89464 6.73478 10 7 10H17C17.2652 10 17.5196 9.89464 17.7071 9.70711C17.8946 9.51957 18 9.26522 18 9C18 8.73478 17.8946 8.48043 17.7071 8.29289C17.5196 8.10536 17.2652 8 17 8H7C6.73478 8 6.48043 8.10536 6.29289 8.29289C6.10536 8.48043 6 8.73478 6 9Z" fill="#333"/>
<path d="M9 17H7C6.73478 17 6.48043 17.1054 6.29289 17.2929C6.10536 17.4804 6 17.7348 6 18C6 18.2652 6.10536 18.5196 6.29289 18.7071C6.48043 18.8946 6.73478 19 7 19H9C9.26522 19 9.51957 18.8946 9.70711 18.7071C9.89464 18.5196 10 18.2652 10 18C10 17.7348 9.89464 17.4804 9.70711 17.2929C9.51957 17.1054 9.26522 17 9 17Z" fill="#333"/>
<path d="M17 17H15C14.7348 17 14.4804 17.1054 14.2929 17.2929C14.1054 17.4804 14 17.7348 14 18C14 18.2652 14.1054 18.5196 14.2929 18.7071C14.4804 18.8946 14.7348 19 15 19H17C17.2652 19 17.5196 18.8946 17.7071 18.7071C17.8946 18.5196 18 18.2652 18 18C18 17.7348 17.8946 17.4804 17.7071 17.2929C17.5196 17.1054 17.2652 17 17 17Z" fill="#333"/>
</svg>
