<svg viewBox="0 0 20 20" fill="none" xmlns="http://www.w3.org/2000/svg"><path d="M10 18C8.41774 18 6.87103 17.5308 5.55543 16.6518C4.23984 15.7727 3.21446 14.5233 2.60896 13.0615C2.00346 11.5997 1.84503 9.99113 2.15371 8.43928C2.46239 6.88743 3.22432 5.46197 4.34314 4.34315C5.46196 3.22433 6.88742 2.4624 8.43927 2.15372C9.99112 1.84504 11.5997 2.00346 13.0615 2.60896C14.5233 3.21446 15.7727 4.23985 16.6518 5.55544C17.5308 6.87103 18 8.41775 18 10C18 12.1217 17.1571 14.1566 15.6568 15.6569C14.1566 17.1571 12.1217 18 10 18ZM10 20C11.9778 20 13.9112 19.4135 15.5557 18.3147C17.2002 17.2159 18.4819 15.6541 19.2388 13.8268C19.9957 11.9996 20.1937 9.98891 19.8078 8.0491C19.422 6.10929 18.4696 4.32746 17.0711 2.92893C15.6725 1.53041 13.8907 0.578 11.9509 0.192147C10.0111 -0.193706 8.00042 0.00432882 6.17316 0.761205C4.3459 1.51808 2.78411 2.79981 1.6853 4.4443C0.586486 6.08879 -4.86183e-06 8.02219 -4.68893e-06 10C-4.57412e-06 11.3132 0.258653 12.6136 0.761199 13.8268C1.26375 15.0401 2.00034 16.1425 2.92893 17.0711C3.85751 17.9997 4.9599 18.7362 6.17316 19.2388C7.38642 19.7413 8.68678 20 10 20Z" fill="#4D7477"/><path d="M10 8.34C10.2652 8.34 10.5196 8.44536 10.7071 8.63289C10.8946 8.82043 11 9.07478 11 9.34L11 14C11 14.2652 10.8946 14.5196 10.7071 14.7071C10.5196 14.8946 10.2652 15 10 15C9.73478 15 9.48043 14.8946 9.29289 14.7071C9.10536 14.5196 9 14.2652 9 14L9 9.34C9 9.07478 9.10536 8.82043 9.29289 8.63289C9.48043 8.44536 9.73478 8.34 10 8.34Z" fill="#4D7477"/><path d="M10 7C10.1978 7 10.3911 6.94135 10.5556 6.83147C10.72 6.72159 10.8482 6.56541 10.9239 6.38268C10.9996 6.19996 11.0194 5.99889 10.9808 5.80491C10.9422 5.61093 10.847 5.43274 10.7071 5.29289C10.5673 5.15304 10.3891 5.0578 10.1951 5.01921C10.0011 4.98063 9.80004 5.00043 9.61732 5.07612C9.43459 5.15181 9.27841 5.27998 9.16853 5.44443C9.05865 5.60888 9 5.80222 9 6C9 6.26522 9.10536 6.51957 9.29289 6.70711C9.48043 6.89464 9.73478 7 10 7Z" fill="#4D7477"/></svg>