<svg viewBox="0 0 24 24" fill="none" xmlns="http://www.w3.org/2000/svg"><path d="M22 16H21V6.17C21.0215 5.35209 20.7178 4.55903 20.1554 3.96477C19.593 3.3705 18.8179 3.02355 18 3H6.00002C5.18216 3.02355 4.40703 3.3705 3.84464 3.96477C3.28224 4.55903 2.97849 5.35209 3.00002 6.17V16H2.00002C1.7348 16 1.48045 16.1054 1.29291 16.2929C1.10537 16.4804 1.00002 16.7348 1.00002 17V17.5C0.999256 17.6316 1.02448 17.7621 1.07425 17.8839C1.12401 18.0057 1.19734 18.1166 1.29002 18.21L1.79002 18.71C1.88346 18.8027 1.99427 18.876 2.11611 18.9258C2.23795 18.9755 2.36841 19.0008 2.50002 19H21.5C21.6316 19.0008 21.7621 18.9755 21.8839 18.9258C22.0058 18.876 22.1166 18.8027 22.21 18.71L22.71 18.21C22.8027 18.1166 22.876 18.0057 22.9258 17.8839C22.9756 17.7621 23.0008 17.6316 23 17.5V17C23 16.7348 22.8947 16.4804 22.7071 16.2929C22.5196 16.1054 22.2652 16 22 16ZM14.28 16.29C13.633 16.7987 12.8214 17.0514 12 17C11.1598 17.0405 10.3329 16.7779 9.67002 16.26C9.48662 16.0933 9.24785 16.0006 9.00002 16H5.00002V6.17C4.97793 5.88234 5.07078 5.59766 5.25823 5.37834C5.44568 5.15903 5.71243 5.02297 6.00002 5H18C18.2876 5.02297 18.5544 5.15903 18.7418 5.37834C18.9293 5.59766 19.0221 5.88234 19 6.17V16H15C14.8667 15.9979 14.7344 16.0225 14.6107 16.0723C14.4871 16.1221 14.3746 16.1961 14.28 16.29Z" fill="#97C5CA"/><path d="M17 13H16V8C16 7.73478 15.8946 7.48043 15.7071 7.29289C15.5196 7.10536 15.2652 7 15 7C14.7348 7 14.4804 7.10536 14.2929 7.29289C14.1054 7.48043 14 7.73478 14 8V13H13V10C13 9.73478 12.8946 9.48043 12.7071 9.29289C12.5196 9.10536 12.2652 9 12 9C11.7348 9 11.4804 9.10536 11.2929 9.29289C11.1054 9.48043 11 9.73478 11 10V13H10V11C10 10.7348 9.89464 10.4804 9.70711 10.2929C9.51957 10.1054 9.26522 10 9 10C8.73478 10 8.48043 10.1054 8.29289 10.2929C8.10536 10.4804 8 10.7348 8 11V13H7C6.73478 13 6.48043 13.1054 6.29289 13.2929C6.10536 13.4804 6 13.7348 6 14C6 14.2652 6.10536 14.5196 6.29289 14.7071C6.48043 14.8946 6.73478 15 7 15H17C17.2652 15 17.5196 14.8946 17.7071 14.7071C17.8946 14.5196 18 14.2652 18 14C18 13.7348 17.8946 13.4804 17.7071 13.2929C17.5196 13.1054 17.2652 13 17 13Z" fill="#97C5CA"/></svg>