<svg viewBox="0 0 38 44" fill="none" xmlns="http://www.w3.org/2000/svg"><path d="M37.3334 21.4833C36.0644 17.6294 33.6061 14.2771 30.312 11.9083C27.0178 9.53952 23.0574 8.2762 19 8.29996H18.3334C20.95 5.3333 25.5 2.5333 32.9334 4.11663C33.1532 4.181 33.3839 4.19936 33.6112 4.17056C33.8385 4.14177 34.0573 4.06644 34.2542 3.94928C34.451 3.83211 34.6216 3.67563 34.7552 3.4896C34.8889 3.30356 34.9828 3.09198 35.031 2.86804C35.0792 2.64411 35.0808 2.41264 35.0356 2.18808C34.9903 1.96352 34.8993 1.75069 34.7682 1.56288C34.637 1.37507 34.4685 1.21632 34.2733 1.09652C34.0781 0.97673 33.8602 0.89847 33.6334 0.86663C22.85 -1.43337 16.9667 4.19996 14.4334 7.91663C11.0157 5.11612 6.75134 3.55371 2.33336 3.4833C1.89133 3.4833 1.46741 3.65889 1.15485 3.97145C0.842289 4.28401 0.666694 4.70794 0.666694 5.14996C0.666694 5.59199 0.842289 6.01591 1.15485 6.32847C1.46741 6.64104 1.89133 6.81663 2.33336 6.81663C5.64651 6.87547 8.86024 7.95836 11.5334 9.91663C8.2903 11.3924 5.54088 13.771 3.61383 16.768C1.68677 19.765 0.663618 23.2536 0.666694 26.8166C0.666694 27.2587 0.842289 27.6826 1.15485 27.9951C1.46741 28.3077 1.89133 28.4833 2.33336 28.4833C2.77539 28.4833 3.19931 28.3077 3.51187 27.9951C3.82443 27.6826 4.00003 27.2587 4.00003 26.8166C3.99067 23.6912 4.94606 20.639 6.73578 18.0767C8.5255 15.5145 11.0623 13.5669 14 12.5C13.9455 12.8557 13.9694 13.2191 14.0702 13.5646C14.171 13.9101 14.3461 14.2293 14.5834 14.5C14.9334 14.8833 15.25 15.2666 15.5667 15.6666C15.8013 15.9635 16.1001 16.2032 16.4408 16.3678C16.7815 16.5323 17.155 16.6174 17.5334 16.6166C17.6499 16.6245 17.7668 16.6245 17.8834 16.6166C17.6626 17.0023 17.5465 17.4389 17.5465 17.8833C17.5465 18.3277 17.6626 18.7643 17.8834 19.15C18.3334 19.9333 18.7334 20.8166 19.1167 21.6166C19.2922 22.0182 19.5716 22.3658 19.926 22.6236C20.2805 22.8813 20.6972 23.04 21.1334 23.0833C20.8295 23.4044 20.6156 23.8 20.5132 24.2301C20.4108 24.6602 20.4235 25.1097 20.55 25.5333C20.8167 26.45 21.05 27.35 21.25 28.25C21.345 28.6757 21.5484 29.0698 21.8404 29.3939C22.1324 29.718 22.5031 29.9612 22.9167 30.1C22.5582 30.3654 22.2766 30.7213 22.1009 31.1313C21.9252 31.5413 21.8616 31.9906 21.9167 32.4333C22.0334 33.4333 22.1167 34.3833 22.1834 35.2666C22.2138 35.7104 22.3628 36.1379 22.615 36.5044C22.8671 36.8709 23.2131 37.1629 23.6167 37.35C23.2463 37.563 22.9349 37.8651 22.7108 38.2289C22.4867 38.5927 22.357 39.0067 22.3334 39.4333C22.3334 40.35 22.3334 40.9 22.3334 40.9333C22.2628 41.5822 22.4506 42.2328 22.8561 42.7444C23.2615 43.2559 23.8521 43.5872 24.5 43.6666H24.7334C25.355 43.6652 25.9538 43.4322 26.413 43.0131C26.8721 42.594 27.1587 42.0189 27.2167 41.4C27.2167 41.4 27.2167 40.7333 27.3167 39.5833C27.3328 39.0967 27.2056 38.6161 26.9507 38.2012C26.6959 37.7864 26.3247 37.4556 25.8834 37.25C26.3114 37.0232 26.6649 36.6776 26.9014 36.2549C27.1379 35.8321 27.2474 35.3501 27.2167 34.8666C27.2167 33.9 27.0667 32.85 26.9167 31.75C26.8591 31.2658 26.6612 30.809 26.3473 30.4359C26.0334 30.0628 25.6172 29.7896 25.15 29.65C25.5457 29.3685 25.8488 28.9759 26.0209 28.5219C26.1931 28.0679 26.2264 27.573 26.1167 27.1C25.8834 26.0333 25.6167 25 25.3167 24.0166C25.1751 23.5491 24.8988 23.1337 24.5223 22.8224C24.1458 22.5111 23.6859 22.3178 23.2 22.2666C23.537 21.9068 23.7608 21.4559 23.8438 20.97C23.9267 20.4841 23.8652 19.9845 23.6667 19.5333C23.2334 18.55 22.75 17.5666 22.25 16.65C22.0127 16.1981 21.6427 15.8298 21.1898 15.5944C20.7369 15.3591 20.2229 15.2679 19.7167 15.3333C19.978 14.9014 20.1005 14.3998 20.0677 13.8961C20.0349 13.3925 19.8484 12.911 19.5334 12.5166C19.2834 12.2 19.0167 11.9 18.7667 11.6H19C22.3403 11.5933 25.5972 12.6421 28.3059 14.5965C31.0147 16.551 33.0367 19.3113 34.0834 22.4833C34.2324 22.888 34.5324 23.2191 34.9205 23.4072C35.3086 23.5952 35.7544 23.6256 36.1644 23.4918C36.5743 23.358 36.9165 23.0705 37.1189 22.6898C37.3214 22.309 37.3684 21.8646 37.25 21.45L37.3334 21.4833Z" fill="#fff"/></svg>