<svg viewBox="0 0 24 24" fill="none" xmlns="http://www.w3.org/2000/svg">
<path d="M8.70001 11.5993C8.46131 11.2811 8.10596 11.0707 7.71214 11.0144C7.31831 10.9582 6.91827 11.0606 6.60001 11.2993C6.28175 11.538 6.07134 11.8934 6.01508 12.2872C5.95882 12.681 6.06131 13.0811 6.30001 13.3993L8.94001 16.8993C9.07402 17.0772 9.24572 17.2233 9.44281 17.327C9.6399 17.4307 9.8575 17.4896 10.08 17.4993H10.13C10.3447 17.5025 10.5576 17.4594 10.7543 17.3732C10.951 17.2869 11.1269 17.1594 11.27 16.9993L21.39 5.22934C21.6552 4.92699 21.7895 4.53167 21.7632 4.13034C21.737 3.72901 21.5524 3.35455 21.25 3.08934C20.9477 2.82412 20.5523 2.68987 20.151 2.71613C19.7497 2.74238 19.3752 2.92699 19.11 3.22934L10.21 13.5693L8.70001 11.5993Z" fill="#33A54C"/>
<path d="M22 10.9993C21.9863 10.8686 21.9469 10.7419 21.8842 10.6264C21.8215 10.511 21.7366 10.409 21.6344 10.3263C21.5323 10.2437 21.4148 10.182 21.2888 10.1447C21.1628 10.1075 21.0307 10.0955 20.9 10.1093C20.6399 10.1347 20.4001 10.2609 20.2319 10.4609C20.0637 10.6609 19.9805 10.9187 20 11.1793C20.0152 11.4524 20.0152 11.7262 20 11.9993C20 13.5816 19.5308 15.1283 18.6517 16.4439C17.7727 17.7595 16.5233 18.7848 15.0615 19.3904C13.5996 19.9959 11.9911 20.1543 10.4393 19.8456C8.88742 19.5369 7.46195 18.775 6.34313 17.6562C5.22431 16.5373 4.46239 15.1119 4.15371 13.56C3.84502 12.0082 4.00345 10.3997 4.60895 8.93785C5.21445 7.47604 6.23983 6.22661 7.55543 5.34756C8.87102 4.46851 10.4177 3.99931 12 3.99931C12.9035 4.0052 13.7995 4.16412 14.65 4.46931C14.9006 4.55683 15.1757 4.54121 15.4149 4.42587C15.654 4.31054 15.8375 4.10494 15.925 3.85431C16.0125 3.60368 15.9969 3.32855 15.8815 3.08944C15.7662 2.85033 15.5606 2.66683 15.31 2.57931C13.3072 1.8768 11.1329 1.82972 9.10159 2.44488C7.07029 3.06004 5.2874 4.30553 4.01088 6.00114C2.73437 7.69676 2.03044 9.75454 2.00097 11.8767C1.97149 13.9989 2.61798 16.0755 3.84691 17.8059C5.07583 19.5363 6.82344 20.8308 8.83687 21.5022C10.8503 22.1735 13.0251 22.1868 15.0466 21.5402C17.0681 20.8936 18.8315 19.6206 20.0815 17.9054C21.3315 16.1902 22.0034 14.1217 22 11.9993C22 11.6493 22 11.3093 22 10.9993Z" fill="#33A54C"/>
</svg>
