<svg viewBox="0 0 16 16" fill="none" xmlns="http://www.w3.org/2000/svg"><path d="M4.13 15.5H4.08C3.85749 15.4902 3.63989 15.4314 3.4428 15.3276C3.24571 15.2239 3.07401 15.0779 2.94 14.9L0.3 11.4C0.181811 11.2424 0.0958169 11.0631 0.0469295 10.8722C-0.0019579 10.6814 -0.0127818 10.4828 0.0150758 10.2878C0.0429334 10.0928 0.108927 9.90523 0.209288 9.73573C0.30965 9.56623 0.442414 9.41816 0.6 9.29997C0.757586 9.18178 0.936909 9.09579 1.12773 9.0469C1.31855 8.99802 1.51713 8.98719 1.71213 9.01505C1.90714 9.04291 2.09474 9.1089 2.26424 9.20926C2.43374 9.30962 2.58181 9.44239 2.7 9.59997L4.21 11.6L13.11 1.25997C13.2413 1.11027 13.4008 0.987892 13.5795 0.899835C13.7581 0.811779 13.9523 0.759765 14.151 0.746765C14.3497 0.733765 14.5491 0.760032 14.7376 0.824068C14.9262 0.888103 15.1003 0.988652 15.25 1.11997C15.3997 1.2513 15.5221 1.41082 15.6101 1.58943C15.6982 1.76805 15.7502 1.96226 15.7632 2.16098C15.7762 2.3597 15.7499 2.55903 15.6859 2.74759C15.6219 2.93616 15.5213 3.11027 15.39 3.25997L5.27 15C5.12685 15.1601 4.95099 15.2876 4.75432 15.3738C4.55764 15.4601 4.34474 15.5031 4.13 15.5Z" fill="#4D7477"/></svg>