<svg viewBox="0 0 29 27" fill="none" xmlns="http://www.w3.org/2000/svg"><path d="M25.992 7C25.7833 6.99797 25.5751 7.02147 25.372 7.07L13.492 0.14C13.2636 0.00878806 12.9927 -0.0270021 12.738 0.0404038C12.4834 0.10781 12.2656 0.272967 12.132 0.5C12.0443 0.652019 11.9981 0.824463 11.9981 1C11.9981 1.17554 12.0443 1.34798 12.132 1.5C11.3134 0.619981 10.191 0.0838142 8.99204 0C8.82665 0.00965105 8.66575 0.0575762 8.52204 0.14L1.52204 4.3C1.21488 4.41784 0.935624 4.59834 0.702039 4.83C-0.697961 6.24 0.0520387 9.12 2.45204 11.53C3.69071 12.9304 5.41183 13.8124 7.27204 14C7.61377 14.0119 7.95443 13.9552 8.27389 13.8332C8.59335 13.7113 8.88514 13.5266 9.13204 13.29C9.13204 13.23 9.21204 13.16 9.26204 13.1C9.41791 13.0142 9.54621 12.8859 9.63204 12.73L13.842 5.5C13.9354 5.34955 13.9872 5.17701 13.992 5C13.8757 3.78778 13.3252 2.65844 12.442 1.82H12.492L23.492 8.26C23.1502 8.77467 22.9755 9.38235 22.992 10C22.9927 10.444 23.0954 10.8819 23.292 11.28L15.392 17.2C15.3562 17.2343 15.3228 17.2711 15.292 17.31C14.8875 17.1102 14.4432 17.0043 13.992 17C13.5128 17.0013 13.0409 17.1175 12.6157 17.3387C12.1906 17.5599 11.8247 17.8797 11.5485 18.2714C11.2724 18.6631 11.0941 19.1152 11.0286 19.5899C10.9631 20.0647 11.0123 20.5482 11.172 21H9.99204C8.66596 21 7.39419 21.5268 6.4565 22.4645C5.51882 23.4021 4.99204 24.6739 4.99204 26C4.99204 26.2652 5.0974 26.5196 5.28493 26.7071C5.47247 26.8946 5.72682 27 5.99204 27H21.992C22.2573 27 22.5116 26.8946 22.6991 26.7071C22.8867 26.5196 22.992 26.2652 22.992 26C22.992 24.6739 22.4653 23.4021 21.5276 22.4645C20.5899 21.5268 19.3181 21 17.992 21H16.812C16.9285 20.6793 16.9893 20.3411 16.992 20C16.9913 19.556 16.8887 19.1181 16.692 18.72L24.592 12.8C24.6278 12.7657 24.6612 12.7289 24.692 12.69C25.0965 12.8898 25.5409 12.9957 25.992 13C26.7877 13 27.5507 12.6839 28.1134 12.1213C28.676 11.5587 28.992 10.7956 28.992 10C28.992 9.20435 28.676 8.44129 28.1134 7.87868C27.5507 7.31607 26.7877 7 25.992 7ZM7.27204 12C5.95239 11.7941 4.74806 11.1282 3.87204 10.12C2.13204 8.37 1.74204 6.61 2.11204 6.24C2.2455 6.15326 2.40311 6.11123 2.56204 6.12C3.87148 6.33092 5.0647 6.99658 5.93204 8C7.67204 9.75 8.06204 11.51 7.69204 11.88C7.56705 11.9608 7.42084 12.0026 7.27204 12ZM12.992 20C12.992 19.8022 13.0507 19.6089 13.1606 19.4444C13.2704 19.28 13.4266 19.1518 13.6094 19.0761C13.7921 19.0004 13.9931 18.9806 14.1871 19.0192C14.3811 19.0578 14.5593 19.153 14.6991 19.2929C14.839 19.4327 14.9342 19.6109 14.9728 19.8049C15.0114 19.9989 14.9916 20.2 14.9159 20.3827C14.8402 20.5654 14.7121 20.7216 14.5476 20.8315C14.3832 20.9414 14.1898 21 13.992 21C13.7268 21 13.4725 20.8946 13.2849 20.7071C13.0974 20.5196 12.992 20.2652 12.992 20ZM25.992 11C25.7943 11 25.6009 10.9414 25.4365 10.8315C25.272 10.7216 25.1438 10.5654 25.0682 10.3827C24.9925 10.2 24.9727 9.99889 25.0113 9.80491C25.0498 9.61093 25.1451 9.43275 25.2849 9.29289C25.4248 9.15304 25.603 9.0578 25.7969 9.01921C25.9909 8.98063 26.192 9.00043 26.3747 9.07612C26.5574 9.15181 26.7136 9.27998 26.8235 9.44443C26.9334 9.60888 26.992 9.80222 26.992 10C26.992 10.2652 26.8867 10.5196 26.6991 10.7071C26.5116 10.8946 26.2573 11 25.992 11Z" fill="#333"/></svg>