<svg viewBox="0 0 22 22" fill="none" xmlns="http://www.w3.org/2000/svg">
<path d="M11 0.873535C5.47887 0.873535 1 5.35241 1 10.8735C1 16.3947 5.47887 20.8735 11 20.8735C16.5211 20.8735 21 16.3947 21 10.8735C21 5.35241 16.5211 0.873535 11 0.873535ZM5.08451 17.0989C6.71831 14.9862 8.80282 13.8313 11 13.8313C13.1972 13.8313 15.2817 14.9862 16.9155 17.0989C15.3662 18.5637 13.2817 19.4651 11 19.4651C8.71831 19.4651 6.6338 18.5637 5.08451 17.0989ZM11 12.1411C9.3662 12.1411 8.07042 10.8172 8.07042 9.21156C8.07042 7.60593 9.3662 6.28199 11 6.28199C12.6338 6.28199 13.9296 7.60593 13.9296 9.21156C13.9296 10.8172 12.6338 12.1411 11 12.1411ZM17.8732 16.0285C16.6056 14.451 15.0845 13.3524 13.4507 12.8172C14.6056 12.0285 15.3662 10.7045 15.3662 9.21156C15.3662 6.8172 13.4225 4.87354 11.0282 4.87354C8.6338 4.87354 6.69014 6.8172 6.69014 9.21156C6.69014 10.7045 7.4507 12.0285 8.60563 12.8172C6.97183 13.3524 5.4507 14.451 4.1831 16.0285C3.08451 14.5918 2.46479 12.789 2.46479 10.8735C2.46479 6.14114 6.32394 2.28199 11.0563 2.28199C15.7887 2.28199 19.5916 6.14114 19.5916 10.8735C19.5916 12.8172 18.9437 14.5918 17.8732 16.0285Z" fill="#000" stroke="#000" stroke-width="0.1"/>
</svg>
