<svg viewBox="0 0 26 27" fill="none" xmlns="http://www.w3.org/2000/svg">
<path d="M19.11 11.41C19.7056 10.3446 20.0123 9.14202 19.9996 7.92154C19.987 6.70105 19.6554 5.50509 19.0378 4.45231C18.4203 3.39952 17.5382 2.52652 16.479 1.9199C15.4199 1.31328 14.2206 0.994141 13 0.994141C11.7794 0.994141 10.5801 1.31328 9.52098 1.9199C8.46185 2.52652 7.57974 3.39952 6.96217 4.45231C6.3446 5.50509 6.01304 6.70105 6.00038 7.92154C5.98772 9.14202 6.2944 10.3446 6.89 11.41V11.41C4.86463 12.3522 3.14478 13.8446 1.92657 15.7171C0.708351 17.5895 0.0407896 19.7665 0 22C0 25.32 6.5 27 13 27C19.5 27 26 25.34 26 22C25.9592 19.7665 25.2916 17.5895 24.0734 15.7171C22.8552 13.8446 21.1354 12.3522 19.11 11.41V11.41ZM13 2.99997C13.9889 2.99997 14.9556 3.29322 15.7779 3.84262C16.6001 4.39203 17.241 5.17292 17.6194 6.08655C17.9978 7.00019 18.0969 8.00552 17.9039 8.97542C17.711 9.94533 17.2348 10.8362 16.5355 11.5355C15.8363 12.2348 14.9454 12.711 13.9755 12.9039C13.0055 13.0968 12.0002 12.9978 11.0866 12.6194C10.173 12.2409 9.39206 11.6001 8.84265 10.7778C8.29325 9.95558 8 8.98888 8 7.99997C8 6.67389 8.52678 5.40212 9.46447 4.46444C10.4021 3.52676 11.6739 2.99997 13 2.99997V2.99997ZM18.57 12.23L18.52 12.3L18.57 12.23ZM7.48 12.3L7.43 12.23L7.48 12.3ZM13 25C5.78 25 2 23.06 2 22C2.04455 20.0657 2.64929 18.1858 3.7409 16.5883C4.83251 14.9909 6.36411 13.7444 8.15 13C9.45382 14.2528 11.1918 14.9524 13 14.9524C14.8082 14.9524 16.5462 14.2528 17.85 13C19.6359 13.7444 21.1675 14.9909 22.2591 16.5883C23.3507 18.1858 23.9554 20.0657 24 22C24 23.06 20.22 25 13 25Z" fill="#333"/>
</svg>
