<svg viewBox="0 0 45 45" fill="none" xmlns="http://www.w3.org/2000/svg">
<path d="M8.54664 35.1317C8.63004 35.3314 8.78882 35.4902 8.98852 35.5736C9.08756 35.6173 9.19426 35.641 9.30249 35.6433L16.2795 35.6433C16.3879 35.6433 16.4953 35.622 16.5954 35.5805C16.6956 35.539 16.7866 35.4782 16.8633 35.4015C16.9399 35.3249 17.0008 35.2338 17.0423 35.1337C17.0837 35.0335 17.1051 34.9261 17.1051 34.8177C17.1051 34.7093 17.0837 34.6019 17.0423 34.5018C17.0008 34.4016 16.9399 34.3106 16.8633 34.2339C16.7866 34.1573 16.6956 34.0965 16.5954 34.055C16.4953 34.0135 16.3879 33.9921 16.2795 33.9921L11.2851 33.9979L19.1866 26.0965C19.3408 25.9423 19.4274 25.7331 19.4274 25.5151C19.4274 25.297 19.3408 25.0878 19.1866 24.9336C19.0324 24.7794 18.8232 24.6928 18.6052 24.6928C18.3871 24.6928 18.1779 24.7794 18.0237 24.9336L10.1223 32.8351L10.1281 27.8407C10.1285 27.7322 10.1075 27.6246 10.0662 27.5243C10.0248 27.4239 9.96403 27.3327 9.88727 27.2559C9.81052 27.1792 9.71933 27.1184 9.61896 27.0771C9.51859 27.0357 9.41103 27.0147 9.30248 27.0151C9.19394 27.0147 9.08638 27.0357 8.98601 27.0771C8.88564 27.1184 8.79445 27.1792 8.7177 27.2559C8.64094 27.3327 8.58015 27.4239 8.53881 27.5243C8.49748 27.6246 8.47643 27.7322 8.47687 27.8407L8.47687 34.8177C8.47924 34.926 8.50295 35.0326 8.54664 35.1317Z" fill="#333"/>
<path d="M35.5237 8.9894C35.4403 8.7897 35.2815 8.63093 35.0818 8.54753C34.9828 8.50383 34.8761 8.48012 34.7678 8.47776L27.7908 8.47776C27.6824 8.47776 27.575 8.49911 27.4749 8.5406C27.3747 8.58209 27.2837 8.64291 27.207 8.71957C27.1304 8.79624 27.0696 8.88725 27.0281 8.98742C26.9866 9.08759 26.9652 9.19495 26.9652 9.30337C26.9652 9.41179 26.9866 9.51915 27.0281 9.61932C27.0696 9.71948 27.1304 9.8105 27.207 9.88716C27.2837 9.96383 27.3747 10.0246 27.4749 10.0661C27.575 10.1076 27.6824 10.129 27.7908 10.129L32.7852 10.1232L24.8837 18.0246C24.7295 18.1788 24.6429 18.388 24.6429 18.606C24.6429 18.8241 24.7295 19.0333 24.8837 19.1875C25.0379 19.3417 25.2471 19.4283 25.4652 19.4283C25.6832 19.4283 25.8924 19.3417 26.0466 19.1875L33.948 11.286L33.9422 16.2804C33.9418 16.3889 33.9628 16.4965 34.0042 16.5968C34.0455 16.6972 34.1063 16.7884 34.183 16.8652C34.2598 16.9419 34.351 17.0027 34.4514 17.044C34.5517 17.0854 34.6593 17.1064 34.7678 17.106C34.8764 17.1064 34.9839 17.0854 35.0843 17.044C35.1847 17.0027 35.2759 16.9419 35.3526 16.8652C35.4294 16.7884 35.4902 16.6972 35.5315 16.5968C35.5728 16.4965 35.5939 16.3889 35.5934 16.2804L35.5934 9.30337C35.5911 9.19514 35.5674 9.08844 35.5237 8.9894Z" fill="#333"/>
</svg>
