<svg viewBox="0 0 18 20" fill="none" xmlns="http://www.w3.org/2000/svg">
<path d="M12 0H4C2.93913 0 1.92172 0.421427 1.17157 1.17157C0.421427 1.92172 0 2.93913 0 4V16C0 17.0609 0.421427 18.0783 1.17157 18.8284C1.92172 19.5786 2.93913 20 4 20H14C15.0609 20 16.0783 19.5786 16.8284 18.8284C17.5786 18.0783 18 17.0609 18 16V6L12 0ZM14 18H4C3.46957 18 2.96086 17.7893 2.58579 17.4142C2.21071 17.0391 2 16.5304 2 16V4C2 3.46957 2.21071 2.96086 2.58579 2.58579C2.96086 2.21071 3.46957 2 4 2H11V5.24C11 5.70678 11.1854 6.15444 11.5155 6.48451C11.8456 6.81457 12.2932 7 12.76 7H16V16C16 16.5304 15.7893 17.0391 15.4142 17.4142C15.0391 17.7893 14.5304 18 14 18Z" fill="#fff"/>
</svg>
