<svg viewBox="0 0 20 20" xmlns="http://www.w3.org/2000/svg"><path d="M18.71 5.28994L14.71 1.28994C14.6171 1.19621 14.5065 1.12182 14.3846 1.07105C14.2627 1.02028 14.132 0.994141 14 0.994141C13.868 0.994141 13.7373 1.02028 13.6154 1.07105C13.4936 1.12182 13.383 1.19621 13.29 1.28994L2.63002 11.9999C2.50298 12.1283 2.41015 12.2864 2.36002 12.4599L1.00002 17.7599C0.957694 17.9273 0.959392 18.1027 1.00495 18.2692C1.05051 18.4356 1.13839 18.5875 1.26002 18.7099C1.357 18.8063 1.4727 18.8817 1.59997 18.9316C1.72725 18.9815 1.86341 19.0047 2.00002 18.9999C2.07973 19.0096 2.16031 19.0096 2.24002 18.9999L7.58002 17.6699C7.75352 17.6198 7.91168 17.527 8.04002 17.3999L18.71 6.70994C18.8038 6.61698 18.8781 6.50637 18.9289 6.38452C18.9797 6.26266 19.0058 6.13195 19.0058 5.99994C19.0058 5.86793 18.9797 5.73722 18.9289 5.61536C18.8781 5.4935 18.8038 5.3829 18.71 5.28994ZM6.82002 15.7599L3.37002 16.6299L4.24002 13.1799L10.71 6.70994L13.29 9.28994L6.82002 15.7599Z" fill="#00383D"/></svg>