<svg viewBox="0 0 35 30" fill="none" xmlns="http://www.w3.org/2000/svg"><path d="M33.6242 12.2062L27.0042 6.99619V2.99619C27.0042 2.73098 26.8989 2.47662 26.7114 2.28909C26.5238 2.10155 26.2695 1.99619 26.0042 1.99619C25.739 1.99619 25.4847 2.10155 25.2971 2.28909C25.1096 2.47662 25.0042 2.73098 25.0042 2.99619V5.45619L18.8642 0.646195C18.3346 0.227668 17.6793 0 17.0042 0C16.3292 0 15.6739 0.227668 15.1442 0.646195L0.384245 12.2062C0.174724 12.3706 0.0391053 12.6116 0.00722414 12.876C-0.024657 13.1404 0.0498106 13.4067 0.214245 13.6162C0.378679 13.8257 0.61961 13.9613 0.884037 13.9932C1.14846 14.0251 1.41472 13.9506 1.62424 13.7862L4.00424 11.9162V24.9962C4.00424 26.3223 4.53103 27.594 5.46871 28.5317C6.40639 29.4694 7.67816 29.9962 9.00424 29.9962H25.0042C26.3303 29.9962 27.6021 29.4694 28.5398 28.5317C29.4775 27.594 30.0042 26.3223 30.0042 24.9962V11.9162L32.3842 13.7862C32.5615 13.9238 32.7799 13.9977 33.0042 13.9962C33.2133 13.9976 33.4176 13.9335 33.5883 13.8129C33.759 13.6922 33.8877 13.5211 33.9561 13.3235C34.0245 13.126 34.0293 12.9119 33.9698 12.7115C33.9103 12.5111 33.7894 12.3344 33.6242 12.2062ZM28.0042 24.9962C28.0042 25.7918 27.6882 26.5549 27.1256 27.1175C26.563 27.6801 25.7999 27.9962 25.0042 27.9962H21.0042V18.9962C21.0042 18.2005 20.6882 17.4375 20.1256 16.8749C19.563 16.3123 18.7999 15.9962 18.0042 15.9962H16.0042C15.2086 15.9962 14.4455 16.3123 13.8829 16.8749C13.3203 17.4375 13.0042 18.2005 13.0042 18.9962V27.9962H9.00424C8.2086 27.9962 7.44553 27.6801 6.88292 27.1175C6.32032 26.5549 6.00424 25.7918 6.00424 24.9962V10.3462L16.3742 2.21619C16.5524 2.07167 16.7748 1.99279 17.0042 1.99279C17.2337 1.99279 17.4561 2.07167 17.6342 2.21619L28.0042 10.3462V24.9962Z" fill="#00383D"/></svg>