<svg viewBox="0 0 31 27" fill="none" xmlns="http://www.w3.org/2000/svg"><path d="M29.6242 10.2289L24.0042 5.8189V1.0189C24.0042 0.75368 23.8989 0.499326 23.7114 0.31179C23.5238 0.124254 23.2695 0.0188966 23.0042 0.0188966H21.0042C20.739 0.0188966 20.4847 0.124254 20.2971 0.31179C20.1096 0.499326 20.0042 0.75368 20.0042 1.0189V2.6789L18.0042 1.0189C17.1626 0.358765 16.1239 0 15.0542 0C13.9846 0 12.9459 0.358765 12.1042 1.0189L0.384245 10.2289C0.174724 10.3933 0.0391053 10.6343 0.00722415 10.8987C-0.024657 11.1631 0.0498104 11.4294 0.214245 11.6389C0.378679 11.8484 0.61961 11.984 0.884036 12.0159C1.14846 12.0478 1.41472 11.9733 1.62424 11.8089L3.00424 10.7189V12.0189C2.73903 12.0189 2.48467 12.1243 2.29714 12.3118C2.1096 12.4993 2.00424 12.7537 2.00424 13.0189C2.00424 13.2841 2.1096 13.5385 2.29714 13.726C2.48467 13.9135 2.73903 14.0189 3.00424 14.0189V16.0189C2.73903 16.0189 2.48467 16.1243 2.29714 16.3118C2.1096 16.4993 2.00424 16.7537 2.00424 17.0189C2.00424 17.2841 2.1096 17.5385 2.29714 17.726C2.48467 17.9135 2.73903 18.0189 3.00424 18.0189V20.0189C2.73903 20.0189 2.48467 20.1243 2.29714 20.3118C2.1096 20.4993 2.00424 20.7537 2.00424 21.0189C2.00424 21.2841 2.1096 21.5385 2.29714 21.726C2.48467 21.9135 2.73903 22.0189 3.00424 22.0189V23.0189C3.00424 23.8145 3.32032 24.5776 3.88292 25.1402C4.44553 25.7028 5.2086 26.0189 6.00424 26.0189H24.0042C24.7999 26.0189 25.563 25.7028 26.1256 25.1402C26.6882 24.5776 27.0042 23.8145 27.0042 23.0189V22.0189C27.2695 22.0189 27.5238 21.9135 27.7114 21.726C27.8989 21.5385 28.0042 21.2841 28.0042 21.0189C28.0042 20.7537 27.8989 20.4993 27.7114 20.3118C27.5238 20.1243 27.2695 20.0189 27.0042 20.0189V18.0189C27.2695 18.0189 27.5238 17.9135 27.7114 17.726C27.8989 17.5385 28.0042 17.2841 28.0042 17.0189C28.0042 16.7537 27.8989 16.4993 27.7114 16.3118C27.5238 16.1243 27.2695 16.0189 27.0042 16.0189V14.0189C27.2695 14.0189 27.5238 13.9135 27.7114 13.726C27.8989 13.5385 28.0042 13.2841 28.0042 13.0189C28.0042 12.7537 27.8989 12.4993 27.7114 12.3118C27.5238 12.1243 27.2695 12.0189 27.0042 12.0189V10.7189L28.3842 11.8089C28.5615 11.9465 28.7799 12.0204 29.0042 12.0189C29.2133 12.0203 29.4176 11.9562 29.5883 11.8356C29.759 11.7149 29.8877 11.5438 29.9561 11.3462C30.0245 11.1487 30.0293 10.9346 29.9698 10.7342C29.9103 10.5338 29.7894 10.3571 29.6242 10.2289ZM9.00424 6.0189H21.0042L23.5542 8.0189H6.44424L9.00424 6.0189ZM13.2642 2.6689C13.7498 2.28106 14.3528 2.06981 14.9742 2.06981C15.5957 2.06981 16.1987 2.28106 16.6842 2.6689L18.4742 4.0189H11.5342L13.2642 2.6689ZM5.00424 14.0189H10.0042V16.0189H5.00424V14.0189ZM18.0042 14.0189V24.0189H12.0042V14.0189H18.0042ZM5.00424 18.0189H10.0042V20.0189H5.00424V18.0189ZM5.00424 23.0189V22.0189H10.0042V24.0189H6.00424C5.73903 24.0189 5.48467 23.9135 5.29714 23.726C5.1096 23.5385 5.00424 23.2841 5.00424 23.0189ZM25.0042 23.0189C25.0042 23.2841 24.8989 23.5385 24.7114 23.726C24.5238 23.9135 24.2695 24.0189 24.0042 24.0189H20.0042V22.0189H25.0042V23.0189ZM25.0042 20.0189H20.0042V18.0189H25.0042V20.0189ZM25.0042 16.0189H20.0042V14.0189H25.0042V16.0189ZM20.0042 12.0189H5.00424V10.0189H25.0042V12.0189H20.0042Z" fill="#97C5CA"/></svg>