<svg viewBox="0 0 22 22" fill="none" xmlns="http://www.w3.org/2000/svg">
<path d="M13.75 1.83331H8.25004C7.27758 1.83331 6.34495 2.21962 5.65732 2.90725C4.96968 3.59489 4.58337 4.52752 4.58337 5.49998V16.5C4.58337 17.4724 4.96968 18.4051 5.65732 19.0927C6.34495 19.7803 7.27758 20.1666 8.25004 20.1666H13.75C14.7225 20.1666 15.6551 19.7803 16.3428 19.0927C17.0304 18.4051 17.4167 17.4724 17.4167 16.5V5.49998C17.4167 4.52752 17.0304 3.59489 16.3428 2.90725C15.6551 2.21962 14.7225 1.83331 13.75 1.83331ZM8.25004 3.66665H13.75C14.2363 3.66665 14.7026 3.8598 15.0464 4.20362C15.3902 4.54743 15.5834 5.01375 15.5834 5.49998V14.6666H6.41671V5.49998C6.41671 5.01375 6.60986 4.54743 6.95368 4.20362C7.29749 3.8598 7.76381 3.66665 8.25004 3.66665ZM9.62504 16.9583C9.62504 16.6864 9.70568 16.4205 9.85677 16.1944C10.0079 15.9683 10.2226 15.792 10.4739 15.688C10.7251 15.5839 11.0016 15.5567 11.2683 15.6097C11.535 15.6628 11.78 15.7937 11.9723 15.986C12.1646 16.1783 12.2956 16.4233 12.3486 16.6901C12.4017 16.9568 12.3744 17.2333 12.2704 17.4845C12.1663 17.7357 11.9901 17.9505 11.7639 18.1016C11.5378 18.2527 11.272 18.3333 11 18.3333C10.6354 18.3333 10.2856 18.1884 10.0278 17.9306C9.76991 17.6727 9.62504 17.323 9.62504 16.9583Z" fill="#97C5CA"/>
<path d="M10.5417 6.41665H11.4583C11.7014 6.41665 11.9346 6.32007 12.1065 6.14816C12.2784 5.97625 12.375 5.74309 12.375 5.49998C12.375 5.25686 12.2784 5.02371 12.1065 4.8518C11.9346 4.67989 11.7014 4.58331 11.4583 4.58331H10.5417C10.2986 4.58331 10.0654 4.67989 9.89349 4.8518C9.72158 5.02371 9.625 5.25686 9.625 5.49998C9.625 5.74309 9.72158 5.97625 9.89349 6.14816C10.0654 6.32007 10.2986 6.41665 10.5417 6.41665Z" fill="#97C5CA"/>
</svg>
