<svg viewBox="0 0 18 18" fill="none" xmlns="http://www.w3.org/2000/svg">
<path d="M13 1H8.5C7.96957 1 7.46086 1.21071 7.08579 1.58579C6.71071 1.96086 6.5 2.46957 6.5 3V4.5H4.5C3.96957 4.5 3.46086 4.71071 3.08579 5.08579C2.71071 5.46086 2.5 5.96957 2.5 6.5V15C2.5 15.5304 2.71071 16.0391 3.08579 16.4142C3.46086 16.7893 3.96957 17 4.5 17H11C11.5304 17 12.0391 16.7893 12.4142 16.4142C12.7893 16.0391 13 15.5304 13 15V13.5H14.5C15.0304 13.5 15.5391 13.2893 15.9142 12.9142C16.2893 12.5391 16.5 12.0304 16.5 11.5V4.5L13 1ZM12 12.5V15C12 15.2652 11.8946 15.5196 11.7071 15.7071C11.5196 15.8946 11.2652 16 11 16H4.5C4.23478 16 3.98043 15.8946 3.79289 15.7071C3.60536 15.5196 3.5 15.2652 3.5 15V6.5C3.5 6.23478 3.60536 5.98043 3.79289 5.79289C3.98043 5.60536 4.23478 5.5 4.5 5.5H9V7.5C9 7.76522 9.10536 8.01957 9.29289 8.20711C9.48043 8.39464 9.73478 8.5 10 8.5H12V12.5ZM15.5 11.5C15.5 11.7652 15.3946 12.0196 15.2071 12.2071C15.0196 12.3946 14.7652 12.5 14.5 12.5H13V8L9.5 4.5H7.5V3C7.5 2.73478 7.60536 2.48043 7.79289 2.29289C7.98043 2.10536 8.23478 2 8.5 2H12.5V4C12.5 4.26522 12.6054 4.51957 12.7929 4.70711C12.9804 4.89464 13.2348 5 13.5 5H15.5V11.5Z" fill="#00383D"/>
</svg>
