<svg viewBox="0 0 69 31" fill="none" xmlns="http://www.w3.org/2000/svg">
<path d="M65 3H62C60.9391 3 59.9217 3.42143 59.1716 4.17157C58.4214 4.92172 58 5.93913 58 7V9.55C57.3933 9.194 56.7034 9.00428 56 9H52C50.9391 9 49.9217 9.42143 49.1716 10.1716C48.4214 10.9217 48 11.9391 48 13V15.55C47.3933 15.194 46.7034 15.0043 46 15H43C41.9391 15 40.9217 15.4214 40.1716 16.1716C39.4214 16.9217 39 17.9391 39 19V25C39 26.0609 39.4214 27.0783 40.1716 27.8284C40.9217 28.5786 41.9391 29 43 29H65C66.0609 29 67.0783 28.5786 67.8284 27.8284C68.5786 27.0783 69 26.0609 69 25V7C69 5.93913 68.5786 4.92172 67.8284 4.17157C67.0783 3.42143 66.0609 3 65 3ZM43 27C42.4696 27 41.9609 26.7893 41.5858 26.4142C41.2107 26.0391 41 25.5304 41 25V20H48V27H43ZM50 27V14H58V27H50ZM67 25C67 25.5304 66.7893 26.0391 66.4142 26.4142C66.0391 26.7893 65.5304 27 65 27H60V8H67V25Z" fill="#00383D"/>
<path d="M23.3101 8L25.3101 5.71C25.4862 5.51225 25.5766 5.25278 25.5616 4.98846C25.5466 4.72415 25.4274 4.47657 25.2301 4.3C22.1357 1.54638 18.1423 0.0173125 14.0001 0C13.7349 0 13.4806 0.105357 13.293 0.292893C13.1055 0.48043 13.0001 0.734784 13.0001 1V4.05C10.0515 4.26473 7.26411 5.47812 5.09779 7.49C2.93147 9.50189 1.51561 12.1921 1.08378 15.1168C0.65195 18.0416 1.22994 21.0262 2.7224 23.5783C4.21486 26.1303 6.53264 28.0975 9.29341 29.1552C12.0542 30.2129 15.093 30.298 17.9087 29.3965C20.7243 28.4949 23.1485 26.6605 24.7815 24.196C26.4144 21.7314 27.1585 18.7838 26.891 15.8395C26.6236 12.8952 25.3605 10.13 23.3101 8ZM15.0001 2C17.9617 2.19771 20.798 3.2696 23.1501 5.08L15.0001 14.35V2ZM13.0001 6V16H3.05014C3.28477 13.4403 4.40844 11.0435 6.22604 9.2259C8.04364 7.4083 10.4404 6.28463 13.0001 6.05V6ZM3.05014 18H13.5001L19.6801 26.4C17.9699 27.4454 16.0046 27.9991 14.0001 28C11.2566 27.9989 8.61258 26.9726 6.58675 25.1225C4.56091 23.2725 3.29955 20.7321 3.05014 18ZM21.2901 25.21L15.4801 17.33L24.3401 13.33C24.7661 14.5072 24.9892 15.7481 25.0001 17C24.9963 18.5528 24.6637 20.0872 24.0242 21.5022C23.3848 22.9173 22.453 24.1809 21.2901 25.21Z" fill="#00383D"/>
</svg>
