<svg viewBox="0 0 17 21" fill="none" xmlns="http://www.w3.org/2000/svg"><path d="M14 7.99988V5.99988C14 3.34988 13 1.99988 11 1.99988C10.8615 1.99871 10.7246 2.0295 10.6 2.08988C10.4 1.71821 10.0927 1.41542 9.71812 1.22098C9.34352 1.02655 8.91903 0.9495 8.5 0.99988C8.08097 0.9495 7.65648 1.02655 7.28188 1.22098C6.90729 1.41542 6.59997 1.71821 6.4 2.08988C6.27537 2.0295 6.13848 1.99871 6 1.99988C4.28 1.99988 3.29 2.99988 3.06 4.99988H3C1 4.99988 0 6.34988 0 8.99988V13.9999C0 15.8564 0.737498 17.6369 2.05025 18.9496C3.36301 20.2624 5.14348 20.9999 7 20.9999H10C11.8565 20.9999 13.637 20.2624 14.9497 18.9496C16.2625 17.6369 17 15.8564 17 13.9999V11.9999C17 8.67988 15.8 7.99988 14 7.99988ZM15 13.9999C15 15.326 14.4732 16.5977 13.5355 17.5354C12.5979 18.4731 11.3261 18.9999 10 18.9999H7C5.67392 18.9999 4.40215 18.4731 3.46447 17.5354C2.52678 16.5977 2 15.326 2 13.9999V8.99988C2 7.28988 2.31 6.99988 3 6.99988V9.99988C3 10.2651 3.10536 10.5195 3.29289 10.707C3.48043 10.8945 3.73478 10.9999 4 10.9999C4.26522 10.9999 4.51957 10.8945 4.70711 10.707C4.89464 10.5195 5 10.2651 5 9.99988V5.99988C5 4.28988 5.31 3.99988 6 3.99988C6 4.32988 6 4.65988 6 4.99988V9.99988C6 10.2651 6.10536 10.5195 6.29289 10.707C6.48043 10.8945 6.73478 10.9999 7 10.9999C7.26522 10.9999 7.51957 10.8945 7.70711 10.707C7.89464 10.5195 8 10.2651 8 9.99988V4.99988C7.94961 4.36311 7.99682 3.72238 8.14 3.09988C8.14 3.09988 8.22 2.99988 8.5 2.99988C8.62472 2.9917 8.74842 3.02704 8.85 3.09988C9.00264 3.7209 9.0533 4.3626 9 4.99988V9.99988C9 10.2651 9.10536 10.5195 9.29289 10.707C9.48043 10.8945 9.73478 10.9999 10 10.9999C10.2652 10.9999 10.5196 10.8945 10.7071 10.707C10.8946 10.5195 11 10.2651 11 9.99988V4.99988C11 4.65988 11 4.32988 11 3.99988C11.69 3.99988 12 4.28988 12 5.99988V12.1499C10.55 12.5199 9 13.5999 9 14.9999C8.99954 15.255 9.09662 15.5007 9.27137 15.6866C9.44612 15.8725 9.68532 15.9846 9.94 15.9999C10.49 15.9999 10.85 15.6299 11 14.9999C11.2385 14.6954 11.5416 14.4478 11.8875 14.2749C12.2334 14.1019 12.6134 14.008 13 13.9999C13.2652 13.9999 13.5196 13.8945 13.7071 13.707C13.8946 13.5195 14 13.2651 14 12.9999V9.99988C14.73 9.99988 15 9.99988 15 11.9999V13.9999Z" fill="#97C5CA"/></svg>