<svg viewBox="0 0 44 44" fill="none" xmlns="http://www.w3.org/2000/svg"><path d="M38.6666 13.9001V9.21673C38.6845 8.21009 38.304 7.23714 37.6078 6.50979C36.9117 5.78244 35.9564 5.35961 34.9499 5.33339H27.7166L23.1833 0.816728C23.0283 0.660514 22.844 0.536524 22.6409 0.451909C22.4378 0.367295 22.2199 0.32373 21.9999 0.32373C21.7799 0.32373 21.5621 0.367295 21.359 0.451909C21.1559 0.536524 20.9715 0.660514 20.8166 0.816728L16.3166 5.33339H8.66659C6.16659 5.33339 0.333252 5.33339 0.333252 13.6667V37.0001C0.333252 38.7682 1.03563 40.4639 2.28587 41.7141C3.53612 42.9643 5.23181 43.6667 6.99992 43.6667H36.9999C38.768 43.6667 40.4637 42.9643 41.714 41.7141C42.9642 40.4639 43.6666 38.7682 43.6666 37.0001V20.3334C43.6618 18.8591 43.1685 17.428 42.2638 16.264C41.3591 15.0999 40.094 14.2686 38.6666 13.9001ZM21.9999 4.35006L31.3166 13.6667H12.6833L18.1833 8.18339L21.9999 4.35006ZM40.3333 37.0001C40.3333 37.8841 39.9821 38.732 39.3569 39.3571C38.7318 39.9822 37.884 40.3334 36.9999 40.3334H6.99992C6.11586 40.3334 5.26802 39.9822 4.6429 39.3571C4.01777 38.732 3.66659 37.8841 3.66659 37.0001V14.5501C4.22868 15.3439 4.98089 15.9842 5.85439 16.4122C6.72789 16.8402 7.69478 17.0423 8.66659 17.0001H36.9999C37.884 17.0001 38.7318 17.3513 39.3569 17.9764C39.9821 18.6015 40.3333 19.4493 40.3333 20.3334V37.0001Z" fill="#84BD00"/></svg>