<svg width="24" height="24" viewBox="0 0 24 24" fill="none" xmlns="http://www.w3.org/2000/svg">
<path d="M20.0004 3.8C19.7352 3.8 19.4809 3.90535 19.2933 4.09289C19.1058 4.28043 19.0004 4.53478 19.0004 4.8V6.35C18.0178 5.13115 16.7341 4.18973 15.2763 3.61873C13.8185 3.04773 12.237 2.86691 10.6879 3.09412C9.13881 3.32133 7.6758 3.94872 6.44337 4.91431C5.21094 5.8799 4.25172 7.15029 3.66045 8.6C3.56151 8.84537 3.56384 9.11994 3.66692 9.3636C3.77001 9.60726 3.96545 9.80014 4.21045 9.9C4.32947 9.95495 4.45937 9.9823 4.59045 9.98C4.78958 9.98099 4.98447 9.92252 5.15016 9.81206C5.31584 9.7016 5.44478 9.54419 5.52045 9.36C5.99725 8.1973 6.77826 7.1844 7.78149 6.42762C8.78473 5.67083 9.97318 5.19807 11.2221 5.05896C12.4711 4.91985 13.7344 5.11952 14.8796 5.637C16.0248 6.15449 17.0095 6.97071 17.7304 8H15.8004C15.5352 8 15.2809 8.10535 15.0933 8.29289C14.9058 8.48043 14.8004 8.73478 14.8004 9C14.8004 9.26521 14.9058 9.51957 15.0933 9.7071C15.2809 9.89464 15.5352 10 15.8004 10H20.0004C20.2657 10 20.52 9.89464 20.7076 9.7071C20.8951 9.51957 21.0004 9.26521 21.0004 9V4.8C21.0004 4.53478 20.8951 4.28043 20.7076 4.09289C20.52 3.90535 20.2657 3.8 20.0004 3.8Z" fill="#97C5CA"/>
<path d="M19.79 14.09C19.5446 13.9911 19.2701 13.9934 19.0264 14.0965C18.7827 14.1996 18.5899 14.395 18.49 14.64C18.1568 15.5187 17.65 16.3213 17 17C16.2725 17.7277 15.3935 18.2861 14.4256 18.6353C13.4576 18.9846 12.4246 19.1161 11.4001 19.0207C10.3755 18.9252 9.38462 18.605 8.49792 18.0829C7.61121 17.5608 6.85052 16.8496 6.27 16H8.2C8.46522 16 8.71957 15.8946 8.90711 15.7071C9.09464 15.5196 9.2 15.2652 9.2 15C9.2 14.7348 9.09464 14.4804 8.90711 14.2929C8.71957 14.1054 8.46522 14 8.2 14H4C3.73478 14 3.48043 14.1054 3.29289 14.2929C3.10536 14.4804 3 14.7348 3 15V19.2C3 19.4652 3.10536 19.7196 3.29289 19.9071C3.48043 20.0946 3.73478 20.2 4 20.2C4.26522 20.2 4.51957 20.0946 4.70711 19.9071C4.89464 19.7196 5 19.4652 5 19.2V17.65C5.79301 18.6311 6.78342 19.4346 7.90698 20.0082C9.03054 20.5819 10.2621 20.9129 11.5219 20.9799C12.7817 21.0468 14.0414 20.8482 15.2195 20.3968C16.3975 19.9455 17.4675 19.2516 18.36 18.36C19.2246 17.5071 19.9052 16.4861 20.36 15.36C20.4486 15.1157 20.4387 14.8466 20.3323 14.6095C20.2259 14.3725 20.0314 14.1862 19.79 14.09Z" fill="#97C5CA"/>
</svg>
