<svg viewBox="0 0 25 24" fill="none" xmlns="http://www.w3.org/2000/svg">
<path d="M13.9102 2C12.1376 2.00132 10.4157 2.59129 9.01478 3.67727C7.61387 4.76325 6.61329 6.28374 6.17016 8H3.91016C3.64494 8 3.39059 8.10536 3.20305 8.29289C3.01551 8.48043 2.91016 8.73478 2.91016 9C2.91016 9.26522 3.01551 9.51957 3.20305 9.70711C3.39059 9.89464 3.64494 10 3.91016 10H5.91016V14C5.91016 16.1217 6.75301 18.1566 8.2533 19.6569C9.75359 21.1571 11.7884 22 13.9102 22C16.0319 22 18.0667 21.1571 19.567 19.6569C21.0673 18.1566 21.9102 16.1217 21.9102 14V10C21.9102 7.87827 21.0673 5.84344 19.567 4.34315C18.0667 2.84285 16.0319 2 13.9102 2ZM15.9102 8H13.9102C13.9102 7.46957 14.1209 6.96086 14.4959 6.58579C14.871 6.21071 15.3797 6 15.9102 6C16.4406 6 16.9493 6.21071 17.3244 6.58579C17.6994 6.96086 17.9102 7.46957 17.9102 8H15.9102ZM19.9102 14C19.9102 15.5913 19.278 17.1174 18.1528 18.2426C17.0276 19.3679 15.5015 20 13.9102 20C12.3189 20 10.7927 19.3679 9.66752 18.2426C8.5423 17.1174 7.91016 15.5913 7.91016 14V10H19.9102V14Z" fill="#00383D"/>
<path d="M10.9102 14C11.4624 14 11.9102 13.5523 11.9102 13C11.9102 12.4477 11.4624 12 10.9102 12C10.3579 12 9.91016 12.4477 9.91016 13C9.91016 13.5523 10.3579 14 10.9102 14Z" fill="#00383D"/>
<path d="M16.9102 14C17.4624 14 17.9102 13.5523 17.9102 13C17.9102 12.4477 17.4624 12 16.9102 12C16.3579 12 15.9102 12.4477 15.9102 13C15.9102 13.5523 16.3579 14 16.9102 14Z" fill="#00383D"/>
<path d="M13.9102 18C14.4406 18 14.9493 17.7893 15.3244 17.4142C15.6994 17.0391 15.9102 16.5304 15.9102 16H11.9102C11.9102 16.5304 12.1209 17.0391 12.4959 17.4142C12.871 17.7893 13.3797 18 13.9102 18Z" fill="#00383D"/>
</svg>
