<svg viewBox="0 0 50 38" fill="none" xmlns="http://www.w3.org/2000/svg"><path d="M45.0001 0.666748C44.0504 0.672041 43.1219 0.947702 42.3231 1.46148C41.5244 1.97525 40.8885 2.70588 40.4898 3.56788C40.0912 4.42988 39.9462 5.38758 40.072 6.32893C40.1978 7.27028 40.5891 8.15634 41.2001 8.88342L34.2668 20.7668C33.9602 20.6997 33.6473 20.6662 33.3335 20.6668C32.2932 20.6686 31.2795 20.9949 30.4335 21.6001L21.4668 15.3334C21.5933 14.9 21.6606 14.4515 21.6668 14.0001C21.6668 12.674 21.14 11.4022 20.2023 10.4645C19.2646 9.52687 17.9929 9.00008 16.6668 9.00008C15.3407 9.00008 14.0689 9.52687 13.1313 10.4645C12.1936 11.4022 11.6668 12.674 11.6668 14.0001C11.6761 15.1145 12.0573 16.1938 12.7501 17.0668L6.08346 27.4668C5.72846 27.382 5.36508 27.3372 5.00012 27.3334C4.01122 27.3334 3.04452 27.6267 2.22227 28.1761C1.40003 28.7255 0.759165 29.5064 0.380727 30.42C0.0022885 31.3336 -0.0967282 32.339 0.0961979 33.3089C0.289124 34.2788 0.765328 35.1697 1.46459 35.869C2.16385 36.5682 3.05477 37.0444 4.02467 37.2373C4.99458 37.4303 5.99991 37.3313 6.91354 36.9528C7.82717 36.5744 8.60806 35.9335 9.15747 35.1113C9.70688 34.289 10.0001 33.3223 10.0001 32.3334C9.99086 31.219 9.60957 30.1397 8.91679 29.2668L15.5835 18.8668C15.9384 18.9515 16.3018 18.9963 16.6668 19.0001C17.707 18.9982 18.7207 18.672 19.5668 18.0668L28.5335 24.3334C28.4069 24.7668 28.3396 25.2153 28.3335 25.6668C28.3282 26.4739 28.5183 27.2703 28.8878 27.988C29.2572 28.7056 29.7949 29.3232 30.4548 29.7879C31.1148 30.2526 31.8775 30.5506 32.6777 30.6564C33.4779 30.7622 34.2918 30.6728 35.0499 30.3957C35.808 30.1186 36.4878 29.662 37.0311 29.0651C37.5744 28.4682 37.9651 27.7486 38.1698 26.9678C38.3746 26.1871 38.3872 25.3683 38.2068 24.5816C38.0263 23.7949 37.658 23.0635 37.1335 22.4501L44.0668 10.5667C44.3734 10.6338 44.6863 10.6673 45.0001 10.6667C46.3262 10.6667 47.598 10.14 48.5357 9.20228C49.4733 8.2646 50.0001 6.99283 50.0001 5.66675C50.0001 4.34067 49.4733 3.0689 48.5357 2.13121C47.598 1.19353 46.3262 0.666748 45.0001 0.666748Z" fill="#333"/></svg>