<svg viewBox="0 0 18 21" fill="none" xmlns="http://www.w3.org/2000/svg">
<path d="M16.4804 6C16.4322 5.94179 16.3787 5.88822 16.3204 5.84L16.7904 5.42C16.8991 5.34184 16.991 5.24266 17.0606 5.12833C17.1303 5.014 17.1763 4.88685 17.1958 4.75443C17.2154 4.622 17.2082 4.48699 17.1747 4.35739C17.1411 4.2278 17.0818 4.10627 17.0004 4C16.0658 2.76147 14.8573 1.75593 13.4694 1.06202C12.0816 0.368104 10.5521 0.00462371 9.00044 0C8.73522 0 8.48087 0.105357 8.29333 0.292893C8.1058 0.48043 8.00044 0.734784 8.00044 1V2.06C6.04882 2.2781 4.22209 3.12854 2.79886 4.48161C1.37563 5.83468 0.434006 7.61611 0.117601 9.55422C-0.198805 11.4923 0.127374 13.4807 1.04639 15.2162C1.96541 16.9516 3.42682 18.3389 5.20775 19.1663C6.98867 19.9938 8.99136 20.2161 10.9104 19.7992C12.8294 19.3824 14.5594 18.3493 15.8366 16.8576C17.1138 15.3659 17.868 13.4974 17.9842 11.5371C18.1005 9.57675 17.5724 7.6322 16.4804 6ZM10.0004 2C11.8529 2.24607 13.5631 3.1259 14.8404 4.49L10.0004 8.77V2ZM8.00044 4.08V9.68L2.62044 8.14C3.10306 7.06518 3.84916 6.12957 4.78962 5.41985C5.73008 4.71014 6.83446 4.24929 8.00044 4.08ZM2.00044 11C2.0035 10.6855 2.02688 10.3715 2.07044 10.06L8.43044 11.88L12.6604 17C11.5972 17.6522 10.3789 18.0084 9.1318 18.0319C7.88466 18.0553 6.65391 17.745 5.5669 17.1332C4.4799 16.5214 3.57612 15.6302 2.94908 14.5519C2.32205 13.4736 1.99454 12.2473 2.00044 11ZM14.2004 15.67L10.6304 11.39L15.8104 9.45C15.9296 9.95828 15.9933 10.478 16.0004 11C15.9965 12.7253 15.3554 14.3884 14.2004 15.67Z" fill="#00383D"/>
</svg>
