<svg viewBox="0 0 36 36" fill="none" xmlns="http://www.w3.org/2000/svg">
<path d="M18 1C14.6377 1 11.351 1.99703 8.55531 3.86502C5.75968 5.733 3.58075 8.38804 2.29406 11.4944C1.00737 14.6007 0.670709 18.0189 1.32666 21.3165C1.98261 24.6142 3.6017 27.6433 5.97919 30.0208C8.35668 32.3983 11.3858 34.0174 14.6835 34.6734C17.9811 35.3293 21.3993 34.9926 24.5056 33.706C27.612 32.4193 30.267 30.2403 32.135 27.4447C34.003 24.6491 35 21.3623 35 18C35 13.4913 33.2089 9.1673 30.0208 5.97918C26.8327 2.79107 22.5087 1 18 1ZM18 33C15.0333 33 12.1332 32.1203 9.66645 30.472C7.19972 28.8238 5.27713 26.4811 4.14181 23.7403C3.0065 20.9994 2.70945 17.9834 3.28823 15.0736C3.86701 12.1639 5.29562 9.49119 7.39341 7.3934C9.49119 5.29561 12.1639 3.867 15.0737 3.28822C17.9834 2.70944 20.9994 3.00649 23.7403 4.14181C26.4812 5.27712 28.8238 7.19971 30.4721 9.66645C32.1203 12.1332 33 15.0333 33 18C33 19.9698 32.612 21.9204 31.8582 23.7403C31.1044 25.5601 29.9995 27.2137 28.6066 28.6066C27.2137 29.9995 25.5601 31.1044 23.7403 31.8582C21.9204 32.612 19.9698 33 18 33Z" fill="#fff"/>
<path d="M19 17.59V11C19 10.7348 18.8947 10.4804 18.7071 10.2929C18.5196 10.1054 18.2652 10 18 10C17.7348 10 17.4804 10.1054 17.2929 10.2929C17.1054 10.4804 17 10.7348 17 11V18C16.9993 18.1316 17.0245 18.2621 17.0742 18.3839C17.124 18.5057 17.1973 18.6166 17.29 18.71L22.29 23.71C22.383 23.8037 22.4936 23.8781 22.6154 23.9289C22.7373 23.9797 22.868 24.0058 23 24.0058C23.132 24.0058 23.2627 23.9797 23.3846 23.9289C23.5065 23.8781 23.6171 23.8037 23.71 23.71C23.8037 23.617 23.8781 23.5064 23.9289 23.3846C23.9797 23.2627 24.0058 23.132 24.0058 23C24.0058 22.868 23.9797 22.7373 23.9289 22.6154C23.8781 22.4936 23.8037 22.383 23.71 22.29L19 17.59Z" fill="#fffs"/>
</svg>
