<svg viewBox="0 0 20 20" fill="none" xmlns="http://www.w3.org/2000/svg"><path fill-rule="evenodd" clip-rule="evenodd" d="M18.8884 8.1637C19.5694 8.5234 19.9966 9.22916 19.9994 9.99917C19.9968 10.7698 19.5691 11.476 18.8874 11.8357L18.7144 11.9286L18.8874 12.0216C19.5707 12.3789 19.999 13.0861 19.999 13.8571C19.999 14.628 19.5707 15.3352 18.8874 15.6926L11.5719 19.6054C10.5897 20.1315 9.40933 20.1315 8.4271 19.6054L1.11157 15.6926C0.428267 15.3352 0 14.628 0 13.8571C0 13.0861 0.428267 12.3789 1.11157 12.0216L1.28456 11.9286L1.11157 11.8357C0.428267 11.4783 0 10.7711 0 10.0002C0 9.22921 0.428267 8.52203 1.11157 8.1647L1.28456 8.07172L1.11157 7.97875C0.428267 7.62141 0 6.91424 0 6.14327C0 5.37231 0.428267 4.66513 1.11157 4.30779L8.4271 0.395908C9.40924 -0.131969 10.5908 -0.131969 11.5729 0.395908L18.8884 4.30679C19.5717 4.66413 20 5.37131 20 6.14227C20 6.91324 19.5717 7.62041 18.8884 7.97775L18.7154 8.07072L18.8884 8.1637ZM9.37206 2.15743L2.05552 6.07131C2.02916 6.08807 2.01215 6.11617 2.00953 6.14729C2.0079 6.17769 2.0267 6.20547 2.05552 6.21527L9.36806 10.1282C9.76157 10.3361 10.2325 10.3361 10.626 10.1282L17.9415 6.21527C17.9415 6.21527 17.9995 6.18428 17.9995 6.14229C17.9995 6.10031 17.9445 6.07031 17.9445 6.07031L10.629 2.15743C10.2358 1.94948 9.76521 1.94948 9.37206 2.15743ZM8.4281 11.8916C9.41033 12.4177 10.5907 12.4177 11.5729 11.8916L16.5996 9.20538L17.9495 9.92717C17.9773 9.93894 17.9957 9.96593 17.9965 9.99615C17.9933 10.0271 17.976 10.0548 17.9495 10.0711L10.634 13.984C10.2402 14.1911 9.76976 14.1911 9.37604 13.984L2.05551 10.0711C2.03158 10.0549 2.01704 10.0281 2.01651 9.99915C2.01719 9.96891 2.03153 9.94061 2.05551 9.92217L3.40542 9.20038L8.4281 11.8916ZM18.0085 13.8521C18.0095 13.8151 17.9455 13.7841 17.9455 13.7841L16.5916 13.0623L11.5689 15.7485C10.5867 16.2746 9.40634 16.2746 8.4241 15.7485L3.40043 13.0613L2.05551 13.7831C2.05551 13.7831 1.99952 13.8021 1.99752 13.8531C1.99552 13.904 2.05551 13.928 2.05551 13.928L9.37304 17.8419C9.76677 18.049 10.2372 18.049 10.631 17.8419L17.9465 13.929C17.9465 13.929 18.0075 13.889 18.0085 13.8521Z" fill="#00383D"/></svg>