<svg viewBox="0 0 30 26" fill="none" xmlns="http://www.w3.org/2000/svg"><path d="M26 0H23C21.9391 0 20.9217 0.421427 20.1716 1.17157C19.4214 1.92172 19 2.93913 19 4V6.55C18.3933 6.194 17.7034 6.00428 17 6H13C11.9391 6 10.9217 6.42143 10.1716 7.17157C9.42143 7.92172 9 8.93913 9 10V12.55C8.39329 12.194 7.70343 12.0043 7 12H4C2.93913 12 1.92172 12.4214 1.17157 13.1716C0.421427 13.9217 0 14.9391 0 16V22C0 23.0609 0.421427 24.0783 1.17157 24.8284C1.92172 25.5786 2.93913 26 4 26H26C27.0609 26 28.0783 25.5786 28.8284 24.8284C29.5786 24.0783 30 23.0609 30 22V4C30 2.93913 29.5786 1.92172 28.8284 1.17157C28.0783 0.421427 27.0609 0 26 0ZM4 24C3.46957 24 2.96086 23.7893 2.58579 23.4142C2.21071 23.0391 2 22.5304 2 22V17H9V24H4ZM11 24V11H19V24H11ZM28 22C28 22.5304 27.7893 23.0391 27.4142 23.4142C27.0391 23.7893 26.5304 24 26 24H21V5H28V22Z" fill="#97C5CA"/></svg>