<svg viewBox="0 0 26 29" fill="none" xmlns="http://www.w3.org/2000/svg"><path d="M22 0H4C2.93913 0 1.92172 0.421427 1.17157 1.17157C0.421427 1.92172 0 2.93913 0 4V8.51C0.00186096 8.74022 0.0830991 8.96274 0.23 9.14C0.708292 9.73275 1.31304 10.2111 2 10.54V18C2 18.7956 2.31607 19.5587 2.87868 20.1213C3.44129 20.6839 4.20435 21 5 21H6.42L4.08 26.62C3.98048 26.8641 3.98138 27.1377 4.08251 27.3811C4.18364 27.6246 4.37681 27.8182 4.62 27.92C4.73868 27.976 4.86882 28.0034 5 28C5.19743 27.999 5.39014 27.9396 5.55386 27.8293C5.71758 27.7189 5.84498 27.5626 5.92 27.38L6.92 24.98L7 25H11.61L11.05 26.68C10.9998 26.8077 10.9763 26.9443 10.9811 27.0814C10.986 27.2185 11.019 27.3531 11.078 27.477C11.1371 27.6008 11.2211 27.7111 11.3246 27.8011C11.4282 27.8911 11.5492 27.9588 11.68 28C11.7862 28.0137 11.8938 28.0137 12 28C12.2096 28.0005 12.4142 27.9352 12.5846 27.8132C12.7551 27.6911 12.8829 27.5186 12.95 27.32L13.72 25H19H19.08L20.08 27.4C20.1206 27.5334 20.1887 27.6568 20.2798 27.7623C20.3709 27.8678 20.4831 27.9531 20.6091 28.0127C20.7351 28.0723 20.8722 28.1049 21.0116 28.1083C21.151 28.1118 21.2895 28.0861 21.4184 28.0329C21.5472 27.9797 21.6635 27.9001 21.7598 27.7993C21.8561 27.6985 21.9302 27.5786 21.9775 27.4475C22.0247 27.3163 22.044 27.1767 22.0341 27.0377C22.0242 26.8986 21.9853 26.7632 21.92 26.64L19.58 21H21C21.7956 21 22.5587 20.6839 23.1213 20.1213C23.6839 19.5587 24 18.7956 24 18V10.54C24.687 10.2111 25.2917 9.73275 25.77 9.14C25.9169 8.96274 25.9981 8.74022 26 8.51V4C26 2.93913 25.5786 1.92172 24.8284 1.17157C24.0783 0.421427 23.0609 0 22 0ZM18 2V8C17.9955 8.02648 17.9955 8.05352 18 8.08C17.7407 8.34856 17.43 8.56215 17.0864 8.70803C16.7428 8.85391 16.3733 8.92909 16 8.92909C15.6267 8.92909 15.2572 8.85391 14.9136 8.70803C14.57 8.56215 14.2593 8.34856 14 8.08C14.0045 8.05352 14.0045 8.02648 14 8V2H18ZM12 2V8C11.9955 8.02648 11.9955 8.05352 12 8.08C11.7407 8.34856 11.43 8.56215 11.0864 8.70803C10.7428 8.85391 10.3733 8.92909 10 8.92909C9.6267 8.92909 9.25723 8.85391 8.91361 8.70803C8.57 8.56215 8.25928 8.34856 8 8.08C8.00448 8.05352 8.00448 8.02648 8 8V2H12ZM2 4C2 3.46957 2.21071 2.96086 2.58579 2.58579C2.96086 2.21071 3.46957 2 4 2H6V8C5.99552 8.02648 5.99552 8.05352 6 8.08C5.74145 8.34982 5.43097 8.56454 5.08726 8.71122C4.74354 8.8579 4.3737 8.93352 4 8.93352C3.6263 8.93352 3.25646 8.8579 2.91274 8.71122C2.56903 8.56454 2.25855 8.34982 2 8.08V4ZM7.75 23L10.67 16H14.61L12.28 23H7.75ZM14.39 23L16.1 17.85L18.25 23H14.39ZM22 18C22 18.2652 21.8946 18.5196 21.7071 18.7071C21.5196 18.8946 21.2652 19 21 19H18.75L16.92 14.62C16.8742 14.5243 16.8134 14.4366 16.74 14.36C16.7116 14.3249 16.6778 14.2946 16.64 14.27C16.5856 14.2221 16.5251 14.1818 16.46 14.15L16.34 14.1C16.2537 14.0659 16.1626 14.0456 16.07 14.04H10C9.80257 14.041 9.60986 14.1004 9.44614 14.2107C9.28242 14.3211 9.15502 14.4774 9.08 14.66L7.25 19H5C4.73478 19 4.48043 18.8946 4.29289 18.7071C4.10536 18.5196 4 18.2652 4 18V11C5.09639 10.9969 6.15734 10.6114 7 9.91C7.84822 10.5986 8.90748 10.9744 10 10.9744C11.0925 10.9744 12.1518 10.5986 13 9.91C13.8482 10.5986 14.9075 10.9744 16 10.9744C17.0925 10.9744 18.1518 10.5986 19 9.91C19.8427 10.6114 20.9036 10.9969 22 11V18ZM24 8.12C23.7414 8.38982 23.431 8.60454 23.0873 8.75122C22.7435 8.8979 22.3737 8.97352 22 8.97352C21.6263 8.97352 21.2565 8.8979 20.9127 8.75122C20.569 8.60454 20.2586 8.38982 20 8.12C20.0102 8.08065 20.0102 8.03935 20 8V2H22C22.5304 2 23.0391 2.21071 23.4142 2.58579C23.7893 2.96086 24 3.46957 24 4V8.12Z" fill="#00383D"/></svg>