<svg viewBox="0 0 20 20" fill="none" xmlns="http://www.w3.org/2000/svg">
<path d="M18.4424 7.53438L13.2449 6.47104L10.6507 1.25521C10.5851 1.12829 10.4858 1.02186 10.3637 0.94757C10.2417 0.873279 10.1015 0.833984 9.95863 0.833984C9.81574 0.833984 9.6756 0.873279 9.55354 0.94757C9.43148 1.02186 9.33219 1.12829 9.26655 1.25521L6.67238 6.47104L1.63988 7.49771C1.46297 7.5323 1.29887 7.61453 1.16526 7.73554C1.03165 7.85655 0.933622 8.01173 0.881739 8.18437C0.829855 8.357 0.826089 8.54052 0.870847 8.71513C0.915605 8.88974 1.00719 9.04882 1.13572 9.17521L4.49988 12.7502L3.37238 17.8377C3.33522 17.9958 3.33413 18.1603 3.36921 18.3189C3.40429 18.4774 3.47463 18.6261 3.57502 18.7538C3.6754 18.8815 3.80325 18.9849 3.94908 19.0564C4.09491 19.1279 4.25497 19.1657 4.41738 19.1669C4.566 19.1684 4.71312 19.1371 4.84822 19.0752L9.99988 16.9119L15.0691 19.066C15.2055 19.1251 15.3514 19.1592 15.4999 19.1669C15.6652 19.1674 15.8285 19.1302 15.9774 19.0583C16.1263 18.9864 16.2569 18.8816 16.3593 18.7518C16.4618 18.622 16.5333 18.4706 16.5687 18.3091C16.604 18.1475 16.6021 17.9801 16.5632 17.8194L15.4999 12.7502L18.9007 9.08354C19.0186 8.96696 19.1026 8.82061 19.1438 8.66006C19.1851 8.49952 19.182 8.33079 19.135 8.17184C19.088 8.01289 18.9987 7.86966 18.8768 7.75741C18.7548 7.64516 18.6047 7.56808 18.4424 7.53438ZM14.1524 11.5035L13.5107 12.2002L13.7032 13.1169L14.4641 16.7835L10.6782 15.2252L9.99988 14.9227L9.27572 15.2252L5.47155 16.8202L6.28738 13.1535L6.49822 12.2369L5.82905 11.531L3.48238 9.00104L7.03905 8.26771L7.95572 8.09354L8.31322 7.25021L9.99988 3.98688L11.6041 7.25021L12.0074 8.05688L12.9241 8.23104L16.5082 8.96438L14.1524 11.5035Z" fill="#333"/>
</svg>
