<svg viewBox="0 0 18 18" fill="none" xmlns="http://www.w3.org/2000/svg">
<path d="M13.5 9C13.3011 9 13.1103 9.07902 12.9697 9.21967C12.829 9.36032 12.75 9.55109 12.75 9.75V13.5C12.75 13.8978 12.592 14.2794 12.3107 14.5607C12.0294 14.842 11.6478 15 11.25 15H4.5C4.10218 15 3.72064 14.842 3.43934 14.5607C3.15804 14.2794 3 13.8978 3 13.5V6.75C3 6.35218 3.15804 5.97064 3.43934 5.68934C3.72064 5.40804 4.10218 5.25 4.5 5.25H8.25C8.44891 5.25 8.63968 5.17098 8.78033 5.03033C8.92098 4.88968 9 4.69891 9 4.5C9 4.30109 8.92098 4.11032 8.78033 3.96967C8.63968 3.82902 8.44891 3.75 8.25 3.75H4.5C3.70435 3.75 2.94129 4.06607 2.37868 4.62868C1.81607 5.19129 1.5 5.95435 1.5 6.75V13.5C1.5 14.2956 1.81607 15.0587 2.37868 15.6213C2.94129 16.1839 3.70435 16.5 4.5 16.5H11.25C12.0456 16.5 12.8087 16.1839 13.3713 15.6213C13.9339 15.0587 14.25 14.2956 14.25 13.5V9.75C14.25 9.55109 14.171 9.36032 14.0303 9.21967C13.8897 9.07902 13.6989 9 13.5 9Z" fill="#333"/>
<path d="M16.4404 1.965C16.3643 1.78174 16.2187 1.63611 16.0354 1.56C15.9453 1.52157 15.8485 1.50118 15.7504 1.5H11.2504C11.0515 1.5 10.8608 1.57902 10.7201 1.71967C10.5795 1.86032 10.5004 2.05109 10.5004 2.25C10.5004 2.44891 10.5795 2.63968 10.7201 2.78033C10.8608 2.92098 11.0515 3 11.2504 3H13.9429L8.46794 8.4675C8.39765 8.53722 8.34185 8.62017 8.30377 8.71157C8.2657 8.80296 8.24609 8.90099 8.24609 9C8.24609 9.09901 8.2657 9.19704 8.30377 9.28843C8.34185 9.37983 8.39765 9.46278 8.46794 9.5325C8.53766 9.6028 8.62062 9.65859 8.71201 9.69667C8.8034 9.73475 8.90143 9.75435 9.00044 9.75435C9.09945 9.75435 9.19748 9.73475 9.28888 9.69667C9.38027 9.65859 9.46322 9.6028 9.53294 9.5325L15.0004 4.0575V6.75C15.0004 6.94891 15.0795 7.13968 15.2201 7.28033C15.3608 7.42098 15.5515 7.5 15.7504 7.5C15.9494 7.5 16.1401 7.42098 16.2808 7.28033C16.4214 7.13968 16.5004 6.94891 16.5004 6.75V2.25C16.4993 2.15199 16.4789 2.05517 16.4404 1.965Z" fill="#333"/>
</svg>
