<svg viewBox="0 0 24 24" fill="none" xmlns="http://www.w3.org/2000/svg">
<path d="M3.11111 8H20.8889C21.1836 8 21.4662 7.89464 21.6746 7.70711C21.8829 7.51957 22 7.26522 22 7C22 6.73478 21.8829 6.48043 21.6746 6.29289C21.4662 6.10536 21.1836 6 20.8889 6H3.11111C2.81643 6 2.53381 6.10536 2.32544 6.29289C2.11706 6.48043 2 6.73478 2 7C2 7.26522 2.11706 7.51957 2.32544 7.70711C2.53381 7.89464 2.81643 8 3.11111 8Z" fill="#00383D"/>
<path d="M20 12H4C3.73478 12 3.48043 12.1054 3.29289 12.2929C3.10536 12.4804 3 12.7348 3 13C3 13.2652 3.10536 13.5196 3.29289 13.7071C3.48043 13.8946 3.73478 14 4 14H20C20.2652 14 20.5196 13.8946 20.7071 13.7071C20.8946 13.5196 21 13.2652 21 13C21 12.7348 20.8946 12.4804 20.7071 12.2929C20.5196 12.1054 20.2652 12 20 12Z" fill="#00383D"/>
<path d="M20.8889 4H3.11111C2.81643 4 2.53381 4.10536 2.32544 4.29289C2.11706 4.48043 2 4.73478 2 5C2 5.26522 2.11706 5.51957 2.32544 5.70711C2.53381 5.89464 2.81643 6 3.11111 6H20.8889C21.1836 6 21.4662 5.89464 21.6746 5.70711C21.8829 5.51957 22 5.26522 22 5C22 4.73478 21.8829 4.48043 21.6746 4.29289C21.4662 4.10536 21.1836 4 20.8889 4Z" fill="#00383D"/>
<path d="M20.8889 18H3.11111C2.81643 18 2.53381 18.1054 2.32544 18.2929C2.11706 18.4804 2 18.7348 2 19C2 19.2652 2.11706 19.5196 2.32544 19.7071C2.53381 19.8946 2.81643 20 3.11111 20H20.8889C21.1836 20 21.4662 19.8946 21.6746 19.7071C21.8829 19.5196 22 19.2652 22 19C22 18.7348 21.8829 18.4804 21.6746 18.2929C21.4662 18.1054 21.1836 18 20.8889 18Z" fill="#00383D"/>
<rect x="2" y="4" width="2" height="16" rx="1" fill="#00383D"/>
<rect x="20" y="4" width="2" height="16" rx="1" fill="#00383D"/>
<rect x="8" y="6" width="2" height="14" rx="1" fill="#00383D"/>
<rect x="14" y="6" width="2" height="14" rx="1" fill="#00383D"/>
</svg>
