<svg viewBox="0 0 16 16" fill="none" xmlns="http://www.w3.org/2000/svg">
<path d="M0.123649 3.69232C0.0792732 3.79882 0.056426 3.91305 0.056426 4.02843C0.056426 4.14381 0.0792732 4.25804 0.123649 4.36454C0.17207 4.47581 0.240415 4.57729 0.325314 4.66399L2.76976 7.10843C2.94353 7.27035 3.17336 7.3585 3.41084 7.35431C3.64832 7.35012 3.8749 7.25392 4.04285 7.08597C4.2108 6.91802 4.30701 6.69144 4.31119 6.45396C4.31539 6.21648 4.22723 5.98664 4.06531 5.81288L3.21587 4.9451C10.8303 5.26288 14.112 8.1351 14.112 14.4173C14.112 14.6604 14.2086 14.8936 14.3805 15.0655C14.5524 15.2374 14.7855 15.334 15.0286 15.334C15.2718 15.334 15.5049 15.2374 15.6768 15.0655C15.8487 14.8936 15.9453 14.6604 15.9453 14.4173C15.9453 7.05343 11.8631 3.45399 3.15476 3.11176L4.06531 2.20121C4.15105 2.11652 4.21911 2.01565 4.26557 1.90445C4.31203 1.79326 4.33595 1.67394 4.33595 1.55343C4.33595 1.43292 4.31203 1.31361 4.26557 1.20241C4.21911 1.09121 4.15105 0.990347 4.06531 0.905654C3.89344 0.733992 3.66045 0.637572 3.41754 0.637572C3.17462 0.637572 2.94163 0.733992 2.76976 0.905654L0.325314 3.3501C0.240415 3.4368 0.17207 3.53828 0.123649 3.64954V3.69232Z" fill="#97C5CA"/>
</svg>
