<svg viewBox="0 0 15 19" fill="none" xmlns="http://www.w3.org/2000/svg">
<path d="M6.75055 18.3341C6.99402 18.4341 7.26709 18.4341 7.51055 18.3341C7.63331 18.2865 7.74545 18.2151 7.84055 18.1241L13.8406 12.1241C13.9338 12.0308 14.0078 11.9201 14.0582 11.7983C14.1087 11.6765 14.1346 11.5459 14.1346 11.4141C14.1346 11.2822 14.1087 11.1516 14.0582 11.0298C14.0078 10.908 13.9338 10.7973 13.8406 10.7041C13.7473 10.6108 13.6366 10.5369 13.5148 10.4864C13.393 10.4359 13.2624 10.41 13.1306 10.41C12.9987 10.41 12.8681 10.4359 12.7463 10.4864C12.6245 10.5369 12.5138 10.6108 12.4206 10.7041L8.13055 15.0041V1.41406C8.13055 1.14885 8.0252 0.894492 7.83766 0.706956C7.65012 0.519419 7.39577 0.414063 7.13055 0.414062C6.86534 0.414063 6.61098 0.519419 6.42345 0.706956C6.23591 0.894492 6.13055 1.14885 6.13055 1.41406V15.0041L1.84055 10.7041C1.74759 10.6103 1.63699 10.5359 1.51513 10.4852C1.39327 10.4344 1.26257 10.4083 1.13055 10.4083C0.998542 10.4083 0.867837 10.4344 0.745977 10.4852C0.624118 10.5359 0.513517 10.6103 0.420554 10.7041C0.326826 10.797 0.252432 10.9076 0.201663 11.0295C0.150894 11.1513 0.124756 11.2821 0.124756 11.4141C0.124756 11.5461 0.150894 11.6768 0.201663 11.7986C0.252432 11.9205 0.326826 12.0311 0.420554 12.1241L6.42055 18.1241C6.51566 18.2151 6.6278 18.2865 6.75055 18.3341Z" fill="#fff"/>
</svg>
