<svg viewBox="0 0 15 19" fill="none" xmlns="http://www.w3.org/2000/svg">
<path d="M7.78204 0.496208C7.66267 0.442069 7.53311 0.414062 7.40204 0.414062C7.27097 0.414062 7.14141 0.442069 7.02204 0.496208C6.89929 0.543802 6.78714 0.615167 6.69204 0.706208L0.692041 6.70621C0.503737 6.89451 0.397949 7.14991 0.397949 7.41621C0.397949 7.68251 0.503737 7.9379 0.692041 8.12621C0.880345 8.31451 1.13574 8.4203 1.40204 8.4203C1.66834 8.4203 1.92374 8.31451 2.11204 8.12621L6.40204 3.82621V17.4162C6.40204 17.6814 6.5074 17.9358 6.69493 18.1233C6.88247 18.3109 7.13682 18.4162 7.40204 18.4162C7.66726 18.4162 7.92161 18.3109 8.10915 18.1233C8.29668 17.9358 8.40204 17.6814 8.40204 17.4162V3.82621L12.692 8.12621C12.785 8.21994 12.8956 8.29433 13.0175 8.3451C13.1393 8.39587 13.27 8.42201 13.402 8.42201C13.5341 8.42201 13.6648 8.39587 13.7866 8.3451C13.9085 8.29433 14.0191 8.21994 14.112 8.12621C14.2047 8.03277 14.278 7.92195 14.3278 7.80011C14.3776 7.67828 14.4028 7.54781 14.402 7.41621C14.4028 7.2846 14.3776 7.15414 14.3278 7.0323C14.278 6.91046 14.2047 6.79965 14.112 6.70621L8.11204 0.706208C8.01694 0.615167 7.90479 0.543802 7.78204 0.496208Z" fill="#333"/>
</svg>
