<svg viewBox="0 0 18 16" fill="none" xmlns="http://www.w3.org/2000/svg">
<path d="M17.92 8.38019C18.02 8.13672 18.02 7.86365 17.92 7.62019C17.8724 7.49743 17.801 7.38529 17.71 7.29019L11.71 1.29019C11.5217 1.10188 11.2663 0.996094 11 0.996094C10.7337 0.996094 10.4783 1.10188 10.29 1.29019C10.1017 1.47849 9.99591 1.73388 9.99591 2.00019C9.99591 2.26649 10.1017 2.52188 10.29 2.71019L14.59 7.00019H1C0.734784 7.00019 0.48043 7.10554 0.292893 7.29308C0.105357 7.48062 0 7.73497 0 8.00019C0 8.2654 0.105357 8.51976 0.292893 8.70729C0.48043 8.89483 0.734784 9.00019 1 9.00019H14.59L10.29 13.2902C10.1963 13.3831 10.1219 13.4937 10.0711 13.6156C10.0203 13.7375 9.9942 13.8682 9.9942 14.0002C9.9942 14.1322 10.0203 14.2629 10.0711 14.3848C10.1219 14.5066 10.1963 14.6172 10.29 14.7102C10.383 14.8039 10.4936 14.8783 10.6154 14.9291C10.7373 14.9798 10.868 15.006 11 15.006C11.132 15.006 11.2627 14.9798 11.3846 14.9291C11.5064 14.8783 11.617 14.8039 11.71 14.7102L17.71 8.71019C17.801 8.61508 17.8724 8.50294 17.92 8.38019Z" fill="#333"/>
</svg>
