<svg id="DESIGN" xmlns="http://www.w3.org/2000/svg" viewBox="0 0 24 24">
<path class="cls-1" d="M16,2H8A4,4,0,0,0,4,6V18a4,4,0,0,0,4,4h8a4,4,0,0,0,4-4V6A4,4,0,0,0,16,2Zm2,16a2,2,0,0,1-2,2H8a2,2,0,0,1-2-2V6A2,2,0,0,1,8,4h8a2,2,0,0,1,2,2Z" fill="#fff"/>
<path class="cls-1" d="M14.5,6h-5a1.5,1.5,0,0,0,0,3h5a1.5,1.5,0,0,0,0-3Z" fill="#fff"/>
<circle class="cls-1" cx="9" cy="11" r="1" fill="#fff"/>
<circle class="cls-1" cx="12" cy="11" r="1" fill="#fff"/>
<circle class="cls-1" cx="15" cy="11" r="1" fill="#fff"/>
<circle class="cls-1" cx="9" cy="14" r="1" fill="#fff"/>
<circle class="cls-1" cx="12" cy="14" r="1" fill="#fff"/>
<circle class="cls-1" cx="15" cy="14" r="1" fill="#fff"/>
<path class="cls-1" d="M12,18a1,1,0,0,0,0-2H9a1,1,0,0,0,0,2Z" fill="#fff"/>
<circle class="cls-1" cx="15" cy="17" r="1" fill="#fff"/>
</svg>