<svg viewBox="0 0 39 58" fill="none" xmlns="http://www.w3.org/2000/svg"><path d="M19.5 0.666504C9.0025 0.666504 0.499997 10.1165 0.499997 19.5498C0.499997 32.1498 8.41666 34.5498 8.41666 40.6665V45.6665C8.41666 50.8832 11.3617 57.3332 19.5 57.3332C27.6383 57.3332 30.5833 50.8832 30.5833 45.6665V40.6665C30.5833 34.6498 38.5 32.1498 38.5 19.5498C38.5 10.1165 29.9975 0.666504 19.5 0.666504ZM27.4167 42.3332V45.6665H11.5833V42.3332H27.4167ZM19.5 53.9998C14.845 53.9998 12.9292 51.3498 12.1375 48.9998H26.8625C26.0708 51.3498 24.155 53.9998 19.5 53.9998ZM27.575 38.9998H11.4408C10.8538 36.442 9.69174 34.0699 8.0525 32.0832C5.16416 28.6227 3.60099 24.1557 3.66666 19.5498C3.66666 12.2165 10.4433 3.99984 19.5 3.99984C28.5567 3.99984 35.3333 12.2165 35.3333 19.5498C35.4019 24.1742 33.8328 28.6599 30.9317 32.1332C29.3059 34.1056 28.1546 36.4607 27.575 38.9998Z" fill="#84BD00"/></svg>