<svg viewBox="0 0 18 18" fill="none" xmlns="http://www.w3.org/2000/svg">
<path fill-rule="evenodd" clip-rule="evenodd" d="M9 1.5C7.65324 1.51118 6.3612 2.03441 5.38616 2.96349C4.41112 3.89256 3.82615 5.15785 3.75 6.5025C3.75 9.8325 6 10.395 6 12V13.5C5.9697 13.9017 6.02651 14.3052 6.16656 14.683C6.30661 15.0607 6.52658 15.4037 6.81144 15.6886C7.0963 15.9734 7.43932 16.1934 7.81705 16.3334C8.19477 16.4735 8.59829 16.5303 9 16.5C9.40171 16.5303 9.80523 16.4735 10.183 16.3334C10.5607 16.1934 10.9037 15.9734 11.1886 15.6886C11.4734 15.4037 11.6934 15.0607 11.8334 14.683C11.9735 14.3052 12.0303 13.9017 12 13.5V12C12 10.41 14.25 9.8325 14.25 6.5025C14.1738 5.15785 13.5889 3.89256 12.6138 2.96349C11.6388 2.03441 10.3468 1.51118 9 1.5ZM11.64 9.375C10.9611 10.0874 10.5572 11.0176 10.5 12H7.5C7.44588 11.0147 7.0416 10.0811 6.36 9.3675C5.62524 8.59715 5.22605 7.5668 5.25 6.5025C5.32982 5.55775 5.75766 4.67631 6.45056 4.02915C7.14345 3.38199 8.05201 3.01522 9 3C9.94799 3.01522 10.8565 3.38199 11.5494 4.02915C12.2423 4.67631 12.6702 5.55775 12.75 6.5025C12.7718 7.56866 12.3731 8.60057 11.64 9.375Z" fill="#97C5CA"/>
</svg>
