<svg viewBox="0 0 24 24" fill="none" xmlns="http://www.w3.org/2000/svg">
<path d="M13.79 10.29L12 12.09L10.21 10.29L8.79004 11.71L10.59 13.5L8.79004 15.29L10.21 16.71L12 14.91L13.79 16.71L15.21 15.29L13.41 13.5L15.21 11.71L13.79 10.29Z" fill="#ffffff"/>
<path d="M21.7201 16.83L13.9101 3.07002C13.7294 2.74733 13.466 2.47863 13.147 2.2916C12.828 2.10457 12.4649 2.00598 12.0951 2.00598C11.7253 2.00598 11.3621 2.10457 11.0431 2.2916C10.7241 2.47863 10.4607 2.74733 10.2801 3.07002L2.28006 16.83C2.09712 17.1509 2.00116 17.5139 2.00171 17.8833C2.00226 18.2526 2.09928 18.6154 2.28318 18.9357C2.46707 19.256 2.73146 19.5227 3.05014 19.7094C3.36882 19.8961 3.73074 19.9963 4.10006 20H19.9001C20.2694 19.9963 20.6313 19.8961 20.95 19.7094C21.2687 19.5227 21.533 19.256 21.7169 18.9357C21.9008 18.6154 21.9979 18.2526 21.9984 17.8833C21.999 17.5139 21.903 17.1509 21.7201 16.83ZM20.0001 18C19.9937 18.0158 19.9826 18.0291 19.9682 18.0381C19.9538 18.0471 19.937 18.0512 19.9201 18.05H4.10006C4.08016 18.0564 4.05856 18.0547 4.03988 18.0454C4.02119 18.036 4.0069 18.0198 4.00006 18C3.98625 17.9812 3.9788 17.9584 3.9788 17.935C3.9788 17.9116 3.98625 17.8889 4.00006 17.87L12.0001 4.05002C12.0001 4.05002 12.0001 4.05002 12.0801 4.05002C12.0922 4.043 12.106 4.0393 12.1201 4.0393C12.1341 4.0393 12.1479 4.043 12.1601 4.05002L20.0001 17.82C20.0145 17.8302 20.0263 17.8436 20.0344 17.8593C20.0426 17.875 20.0468 17.8924 20.0468 17.91C20.0468 17.9277 20.0426 17.9451 20.0344 17.9607C20.0263 17.9764 20.0145 17.9899 20.0001 18Z" fill="#ffffff"/>
</svg>
