<svg viewBox="0 0 37 36" fill="none" xmlns="http://www.w3.org/2000/svg">
<path d="M31.35 2.17017C31.2129 2.0789 31.0553 2.02293 30.8913 2.00723C30.7273 1.99153 30.562 2.01658 30.41 2.08017L19.75 6.50017V3.00017C19.7564 2.83822 19.7233 2.67715 19.6536 2.53082C19.584 2.38449 19.4798 2.25729 19.35 2.16017C19.2129 2.0689 19.0553 2.01293 18.8913 1.99723C18.7273 1.98153 18.562 2.00658 18.41 2.07017L6.41 7.07017C6.21832 7.13946 6.0524 7.26566 5.93444 7.43187C5.81648 7.59808 5.75213 7.79637 5.75 8.00017V33.0002C5.75 33.2654 5.85536 33.5197 6.04289 33.7073C6.23043 33.8948 6.48478 34.0002 6.75 34.0002H30.75C31.0152 34.0002 31.2696 33.8948 31.4571 33.7073C31.6446 33.5197 31.75 33.2654 31.75 33.0002V3.00017C31.7548 2.83989 31.7209 2.68081 31.6513 2.53636C31.5817 2.39191 31.4783 2.26631 31.35 2.17017ZM29.75 8.00017V32.0002H20.75V29.0002C20.75 28.4697 20.5393 27.961 20.1642 27.586C19.7891 27.2109 19.2804 27.0002 18.75 27.0002C18.2196 27.0002 17.7109 27.2109 17.3358 27.586C16.9607 27.961 16.75 28.4697 16.75 29.0002V32.0002H7.75V8.67017L17.75 4.50017V8.00017C17.7481 8.16566 17.7873 8.32903 17.8641 8.47564C17.9409 8.62225 18.0529 8.7475 18.19 8.84017C18.3271 8.93144 18.4847 8.98741 18.6487 9.00311C18.8127 9.01881 18.978 8.99376 19.13 8.93017L29.75 4.50017V8.00017Z" fill="#ffffff"/>
<path d="M10.75 17H13.25C13.5152 17 13.7696 16.8946 13.9571 16.7071C14.1446 16.5196 14.25 16.2652 14.25 16C14.25 15.7348 14.1446 15.4804 13.9571 15.2929C13.7696 15.1054 13.5152 15 13.25 15H10.75C10.4848 15 10.2304 15.1054 10.0429 15.2929C9.85536 15.4804 9.75 15.7348 9.75 16C9.75 16.2652 9.85536 16.5196 10.0429 16.7071C10.2304 16.8946 10.4848 17 10.75 17Z" fill="#ffffff"/>
<path d="M20.37 15H17.13C16.8648 15 16.6104 15.1054 16.4229 15.2929C16.2354 15.4804 16.13 15.7348 16.13 16C16.13 16.2652 16.2354 16.5196 16.4229 16.7071C16.6104 16.8946 16.8648 17 17.13 17H20.37C20.6352 17 20.8896 16.8946 21.0771 16.7071C21.2646 16.5196 21.37 16.2652 21.37 16C21.37 15.7348 21.2646 15.4804 21.0771 15.2929C20.8896 15.1054 20.6352 15 20.37 15Z" fill="#ffffff"/>
<path d="M24.25 17H26.75C27.0152 17 27.2696 16.8946 27.4571 16.7071C27.6446 16.5196 27.75 16.2652 27.75 16C27.75 15.7348 27.6446 15.4804 27.4571 15.2929C27.2696 15.1054 27.0152 15 26.75 15H24.25C23.9848 15 23.7304 15.1054 23.5429 15.2929C23.3554 15.4804 23.25 15.7348 23.25 16C23.25 16.2652 23.3554 16.5196 23.5429 16.7071C23.7304 16.8946 23.9848 17 24.25 17Z" fill="#ffffff"/>
<path d="M10.75 13H13.25C13.5152 13 13.7696 12.8946 13.9571 12.7071C14.1446 12.5196 14.25 12.2652 14.25 12C14.25 11.7348 14.1446 11.4804 13.9571 11.2929C13.7696 11.1054 13.5152 11 13.25 11H10.75C10.4848 11 10.2304 11.1054 10.0429 11.2929C9.85536 11.4804 9.75 11.7348 9.75 12C9.75 12.2652 9.85536 12.5196 10.0429 12.7071C10.2304 12.8946 10.4848 13 10.75 13Z" fill="#ffffff"/>
<path d="M16.13 12C16.13 12.2652 16.2354 12.5196 16.4229 12.7071C16.6104 12.8946 16.8648 13 17.13 13H20.37C20.6352 13 20.8896 12.8946 21.0771 12.7071C21.2646 12.5196 21.37 12.2652 21.37 12C21.37 11.7348 21.2646 11.4804 21.0771 11.2929C20.8896 11.1054 20.6352 11 20.37 11H17.13C16.8648 11 16.6104 11.1054 16.4229 11.2929C16.2354 11.4804 16.13 11.7348 16.13 12Z" fill="#ffffff"/>
<path d="M24.25 13H26.75C27.0152 13 27.2696 12.8946 27.4571 12.7071C27.6446 12.5196 27.75 12.2652 27.75 12C27.75 11.7348 27.6446 11.4804 27.4571 11.2929C27.2696 11.1054 27.0152 11 26.75 11H24.25C23.9848 11 23.7304 11.1054 23.5429 11.2929C23.3554 11.4804 23.25 11.7348 23.25 12C23.25 12.2652 23.3554 12.5196 23.5429 12.7071C23.7304 12.8946 23.9848 13 24.25 13Z" fill="#ffffff"/>
<path d="M10.75 21H13.25C13.5152 21 13.7696 20.8946 13.9571 20.7071C14.1446 20.5196 14.25 20.2652 14.25 20C14.25 19.7348 14.1446 19.4804 13.9571 19.2929C13.7696 19.1054 13.5152 19 13.25 19H10.75C10.4848 19 10.2304 19.1054 10.0429 19.2929C9.85536 19.4804 9.75 19.7348 9.75 20C9.75 20.2652 9.85536 20.5196 10.0429 20.7071C10.2304 20.8946 10.4848 21 10.75 21Z" fill="#ffffff"/>
<path d="M20.37 19H17.13C16.8648 19 16.6104 19.1054 16.4229 19.2929C16.2354 19.4804 16.13 19.7348 16.13 20C16.13 20.2652 16.2354 20.5196 16.4229 20.7071C16.6104 20.8946 16.8648 21 17.13 21H20.37C20.6352 21 20.8896 20.8946 21.0771 20.7071C21.2646 20.5196 21.37 20.2652 21.37 20C21.37 19.7348 21.2646 19.4804 21.0771 19.2929C20.8896 19.1054 20.6352 19 20.37 19Z" fill="#ffffff"/>
<path d="M24.25 21H26.75C27.0152 21 27.2696 20.8946 27.4571 20.7071C27.6446 20.5196 27.75 20.2652 27.75 20C27.75 19.7348 27.6446 19.4804 27.4571 19.2929C27.2696 19.1054 27.0152 19 26.75 19H24.25C23.9848 19 23.7304 19.1054 23.5429 19.2929C23.3554 19.4804 23.25 19.7348 23.25 20C23.25 20.2652 23.3554 20.5196 23.5429 20.7071C23.7304 20.8946 23.9848 21 24.25 21Z" fill="#ffffff"/>
<path d="M10.75 25H13.25C13.5152 25 13.7696 24.8946 13.9571 24.7071C14.1446 24.5196 14.25 24.2652 14.25 24C14.25 23.7348 14.1446 23.4804 13.9571 23.2929C13.7696 23.1054 13.5152 23 13.25 23H10.75C10.4848 23 10.2304 23.1054 10.0429 23.2929C9.85536 23.4804 9.75 23.7348 9.75 24C9.75 24.2652 9.85536 24.5196 10.0429 24.7071C10.2304 24.8946 10.4848 25 10.75 25Z" fill="#ffffff"/>
<path d="M20.37 23H17.13C16.8648 23 16.6104 23.1054 16.4229 23.2929C16.2354 23.4804 16.13 23.7348 16.13 24C16.13 24.2652 16.2354 24.5196 16.4229 24.7071C16.6104 24.8946 16.8648 25 17.13 25H20.37C20.6352 25 20.8896 24.8946 21.0771 24.7071C21.2646 24.5196 21.37 24.2652 21.37 24C21.37 23.7348 21.2646 23.4804 21.0771 23.2929C20.8896 23.1054 20.6352 23 20.37 23Z" fill="#ffffff"/>
<path d="M24.25 25H26.75C27.0152 25 27.2696 24.8946 27.4571 24.7071C27.6446 24.5196 27.75 24.2652 27.75 24C27.75 23.7348 27.6446 23.4804 27.4571 23.2929C27.2696 23.1054 27.0152 23 26.75 23H24.25C23.9848 23 23.7304 23.1054 23.5429 23.2929C23.3554 23.4804 23.25 23.7348 23.25 24C23.25 24.2652 23.3554 24.5196 23.5429 24.7071C23.7304 24.8946 23.9848 25 24.25 25Z" fill="#ffffff"/>
<path d="M13.75 27H10.75C10.4848 27 10.2304 27.1054 10.0429 27.2929C9.85536 27.4804 9.75 27.7348 9.75 28C9.75 28.2652 9.85536 28.5196 10.0429 28.7071C10.2304 28.8946 10.4848 29 10.75 29H13.75C14.0152 29 14.2696 28.8946 14.4571 28.7071C14.6446 28.5196 14.75 28.2652 14.75 28C14.75 27.7348 14.6446 27.4804 14.4571 27.2929C14.2696 27.1054 14.0152 27 13.75 27Z" fill="#ffffff"/>
<path d="M23.75 29H26.75C27.0152 29 27.2696 28.8946 27.4571 28.7071C27.6446 28.5196 27.75 28.2652 27.75 28C27.75 27.7348 27.6446 27.4804 27.4571 27.2929C27.2696 27.1054 27.0152 27 26.75 27H23.75C23.4848 27 23.2304 27.1054 23.0429 27.2929C22.8554 27.4804 22.75 27.7348 22.75 28C22.75 28.2652 22.8554 28.5196 23.0429 28.7071C23.2304 28.8946 23.4848 29 23.75 29Z" fill="#ffffff"/>
</svg>
