<svg width="377.40000000000003" height="210.9" viewBox="0 0 340 190" class="looka-1j8o68f" version="1.1" xmlns="http://www.w3.org/2000/svg" xmlns:xlink="http://www.w3.org/1999/xlink"><defs id="SvgjsDefs4852"></defs><g id="SvgjsG4853" featurekey="rootContainer" transform="matrix(1,0,0,1,0,0)" fill="#ffffff"><rect xmlns="http://www.w3.org/2000/svg" width="340" height="190" rx="10" ry="10"></rect></g><g id="SvgjsG4854" featurekey="uKAeQw-0" transform="matrix(6.9354539578762395,0,0,6.9354539578762395,8.76456538194021,-14.6772697893812)" fill="#323232"><path d="M14.32 18.7 q0.12 0.14 0.14 0.34 t-0.07 0.38 t-0.26 0.28 t-0.37 0.1 l-1.9 0 q-0.18 0 -0.33 -0.08 t-0.25 -0.22 l-4.78 -6.88 l-1.96 1.84 l0 4.64 q0 0.28 -0.21 0.49 t-0.49 0.21 l-1.52 0 q-0.28 0 -0.49 -0.21 t-0.21 -0.49 l0 -5.56 q0 -0.32 0.22 -0.5 l8.36 -7.84 q0.2 -0.2 0.48 -0.2 l2.16 0 q0.2 0 0.38 0.12 t0.26 0.32 t0.04 0.41 t-0.2 0.37 l-4.68 4.4 z M2.32 10.1 q-0.28 0 -0.49 -0.2 t-0.21 -0.5 l0 -3.7 q0 -0.28 0.21 -0.49 t0.49 -0.21 l1.52 0 q0.28 0 0.49 0.21 t0.21 0.49 l0 3.7 q0 0.3 -0.21 0.5 t-0.49 0.2 l-1.52 0 z M30.228 5.32 q0.22 0.3 0.08 0.66 l-5.48 13.54 q-0.08 0.2 -0.26 0.32 t-0.4 0.12 l-1.76 0 q-0.22 0 -0.4 -0.12 t-0.26 -0.32 l-5.48 -13.54 q-0.16 -0.34 0.06 -0.66 t0.58 -0.32 l6.68 0 q0.28 0 0.49 0.21 t0.21 0.51 l0 1.46 q0 0.3 -0.21 0.51 t-0.49 0.21 l-3.36 0 l3.06 7.7 l4.02 -10.16 q0.08 -0.2 0.26 -0.32 t0.4 -0.12 l1.68 0 q0.18 0 0.34 0.09 t0.24 0.23 z M35.236 5 q0.3 0 0.51 0.21 t0.21 0.51 l0 1.46 q0 0.3 -0.21 0.51 t-0.51 0.21 l-2.06 0 q-0.28 0 -0.49 -0.21 t-0.21 -0.51 l0 -1.46 q0 -0.3 0.21 -0.51 t0.49 -0.21 l2.06 0 z M44.176 5 q0.28 0 0.49 0.21 t0.21 0.51 l0 1.46 q0 0.3 -0.21 0.51 t-0.49 0.21 l-4.02 0 l0 11.36 q0 0.28 -0.21 0.49 t-0.49 0.21 l-1.54 0 q-0.3 0 -0.51 -0.21 t-0.21 -0.49 l0 -13.54 q0 -0.3 0.21 -0.51 t0.51 -0.21 l6.26 0 z"></path></g><g id="SvgjsG4855" featurekey="uKAeQw-1" transform="matrix(2.384539642783571,0,0,2.384539642783571,19.843680440570573,122.07730633423057)" fill="#323232"><path d="M13.26 5 q0.34 0 0.58 0.3 q0.2 0.34 0.06 0.66 l-5.38 13.28 q-0.08 0.2 -0.26 0.32 t-0.38 0.12 l-1.72 0 q-0.22 0 -0.39 -0.12 t-0.27 -0.32 l-5.38 -13.28 q-0.14 -0.36 0.08 -0.66 q0.1 -0.14 0.25 -0.22 t0.33 -0.08 l1.64 0 q0.2 0 0.38 0.12 t0.26 0.32 l3.96 9.94 l3.94 -9.94 q0.1 -0.2 0.27 -0.32 t0.39 -0.12 l1.64 0 z M27.868000000000002 5 q0.3 0 0.5 0.21 t0.2 0.49 l0 1.44 q0 0.28 -0.2 0.49 t-0.5 0.21 l-7.56 0 l0 3.06 l6.68 0 q0.3 0 0.5 0.21 t0.2 0.49 l0 1.46 q0 0.28 -0.2 0.49 t-0.5 0.21 l-6.68 0 l0 3.08 l7.56 0 q0.3 0 0.5 0.21 t0.2 0.49 l0 1.44 q0 0.28 -0.2 0.49 t-0.5 0.21 l-9.76 0 q-0.28 0 -0.49 -0.21 t-0.21 -0.49 l0 -13.28 q0 -0.28 0.21 -0.49 t0.49 -0.21 l9.76 0 z M44.916000000000004 5 q0.28 0 0.49 0.21 t0.21 0.49 l0 13.28 q0 0.28 -0.21 0.49 t-0.49 0.21 l-1.76 0 q-0.34 0 -0.56 -0.28 l-6.94 -9.5 l0 9.08 q0 0.28 -0.21 0.49 t-0.49 0.21 l-1.5 0 q-0.28 0 -0.49 -0.21 t-0.21 -0.49 l0 -13.28 q0 -0.28 0.21 -0.49 t0.49 -0.21 l1.74 0 q0.16 0 0.32 0.07 t0.24 0.21 l6.96 9.46 l0 -9.04 q0 -0.28 0.2 -0.49 t0.48 -0.21 l1.52 0 z M60.764 5 q0.28 0 0.48 0.21 t0.2 0.49 l0 1.44 q0 0.28 -0.2 0.49 t-0.48 0.21 l-3.94 0 l0 11.14 q0 0.28 -0.21 0.49 t-0.49 0.21 l-1.5 0 q-0.3 0 -0.5 -0.21 t-0.2 -0.49 l0 -11.14 l-3.94 0 q-0.28 0 -0.49 -0.21 t-0.21 -0.49 l0 -1.44 q0 -0.28 0.21 -0.49 t0.49 -0.21 l10.78 0 z M76.952 5 q0.28 0 0.49 0.21 t0.21 0.49 l0 7.56 q0 2.92 -1.78 4.75 t-4.57 1.83 t-4.57 -1.83 t-1.78 -4.75 l0 -7.56 q0 -0.28 0.21 -0.49 t0.49 -0.21 l1.5 0 q0.28 0 0.49 0.21 t0.21 0.49 l0 7.6 q0 1.86 1.06 2.84 q0.9 0.84 2.38 0.84 t2.4 -0.84 q1.06 -1 1.06 -2.84 l0 -7.6 q0 -0.28 0.2 -0.49 t0.48 -0.21 l1.52 0 z M91.92000000000002 14.02 l2.98 4.58 q0.1 0.16 0.11 0.36 t-0.08 0.36 t-0.26 0.26 t-0.35 0.1 l-1.8 0 q-0.18 0 -0.34 -0.09 t-0.24 -0.23 l-3 -4.78 l-3.54 0 l0 4.4 q0 0.28 -0.21 0.49 t-0.49 0.21 l-1.5 0 q-0.28 0 -0.49 -0.21 t-0.21 -0.49 l0 -13.28 q0 -0.28 0.21 -0.49 t0.49 -0.21 l6.36 0 q2.3 0 3.73 1.31 t1.43 3.55 q0 1.44 -0.63 2.47 t-1.85 1.55 q-0.08 0.04 -0.26 0.12 z M85.4 7.82 l0 3.94 l3.9 0 q1.72 0 2.34 -0.98 q0.2 -0.36 0.2 -0.92 q0 -0.94 -0.62 -1.48 q-0.68 -0.56 -1.84 -0.56 l-3.98 0 z M109.54800000000002 5 q0.3 0 0.5 0.21 t0.2 0.49 l0 1.44 q0 0.28 -0.2 0.49 t-0.5 0.21 l-7.56 0 l0 3.06 l6.68 0 q0.3 0 0.5 0.21 t0.2 0.49 l0 1.46 q0 0.28 -0.2 0.49 t-0.5 0.21 l-6.68 0 l0 3.08 l7.56 0 q0.3 0 0.5 0.21 t0.2 0.49 l0 1.44 q0 0.28 -0.2 0.49 t-0.5 0.21 l-9.76 0 q-0.28 0 -0.49 -0.21 t-0.21 -0.49 l0 -13.28 q0 -0.28 0.21 -0.49 t0.49 -0.21 l9.76 0 z M124.13600000000002 12.42 q0.84 0.54 1.29 1.32 t0.45 1.74 q0 2.2 -1.7 3.42 q-1.58 1.1 -4.26 1.1 q-3.04 0 -4.7 -1.32 q-1.52 -1.22 -1.74 -3.44 q-0.04 -0.32 0.18 -0.54 t0.52 -0.22 l1.56 0 q0.28 0 0.48 0.18 t0.22 0.46 q0.04 0.52 0.27 0.89 t0.71 0.65 q0.92 0.52 2.52 0.52 q1.38 0 2.14 -0.32 q0.58 -0.26 0.78 -0.7 q0.12 -0.24 0.12 -0.62 q0 -0.24 -0.09 -0.4 t-0.29 -0.3 q-0.56 -0.38 -1.48 -0.66 q-0.8 -0.24 -2.14 -0.56 q-1.22 -0.26 -2.3 -0.7 q-1.22 -0.52 -1.92 -1.24 q-0.88 -0.88 -0.88 -2.3 q0 -1.98 1.5 -3.2 q1.46 -1.18 4.22 -1.18 t4.34 1.32 q1.48 1.22 1.58 3.14 q0.04 0.28 -0.18 0.52 q-0.24 0.2 -0.5 0.2 l-1.56 0 q-0.26 0 -0.46 -0.17 t-0.22 -0.43 q-0.06 -0.52 -0.34 -0.86 q-0.4 -0.5 -1.28 -0.74 q-0.6 -0.18 -1.53 -0.18 t-1.48 0.19 t-0.81 0.41 t-0.32 0.44 q-0.1 0.34 -0.1 0.64 q0 0.16 0.18 0.34 q0.36 0.32 0.8 0.48 q0.56 0.24 1.38 0.44 t1.71 0.42 t1.69 0.48 q0.94 0.32 1.64 0.78 z"></path></g></svg>