<svg viewBox="0 0 48 46" fill="none" xmlns="http://www.w3.org/2000/svg"><path d="M27.3335 45.5557H20.6668C20.3174 45.5566 19.9766 45.4513 19.6924 45.2547C19.4083 45.0581 19.1953 44.7801 19.0835 44.4601L17.4168 39.7396C17.0501 39.6107 16.6835 39.4657 16.3335 39.3046L11.7835 41.5279C11.4691 41.6807 11.1127 41.7334 10.7654 41.6784C10.4181 41.6235 10.0977 41.4636 9.85015 41.2218L5.15015 36.6785C4.90001 36.4392 4.73465 36.1295 4.67777 35.7938C4.62088 35.458 4.67539 35.1135 4.83348 34.8096L7.13348 30.3629C6.96682 30.0085 6.81682 29.6701 6.68348 29.3157L1.80015 27.8335C1.45518 27.7214 1.15765 27.5032 0.953008 27.2123C0.748362 26.9214 0.647847 26.5737 0.666817 26.2224V19.7779C0.665915 19.4402 0.774849 19.1107 0.978221 18.836C1.18159 18.5614 1.46912 18.3554 1.80015 18.2474L6.68348 16.6363C6.81682 16.2818 6.96682 15.9435 7.13348 15.589L4.83348 11.1907C4.67539 10.8868 4.62088 10.5422 4.67777 10.2065C4.73465 9.87081 4.90001 9.56111 5.15015 9.32181L9.85015 4.77847C10.0977 4.53667 10.4181 4.37682 10.7654 4.32184C11.1127 4.26685 11.4691 4.31954 11.7835 4.47236L16.3835 6.6957C16.7335 6.53459 17.1002 6.38959 17.4668 6.2607L19.1335 1.54014C19.2425 1.22785 19.4479 0.95537 19.7221 0.759468C19.9963 0.563567 20.326 0.453664 20.6668 0.444585H27.3335C27.6829 0.443714 28.0237 0.549016 28.3079 0.745609C28.592 0.942201 28.805 1.22014 28.9168 1.54014L30.5835 6.2607C30.9502 6.38959 31.3168 6.53459 31.6668 6.6957L36.2168 4.47236C36.5312 4.31954 36.8876 4.26685 37.2349 4.32184C37.5822 4.37682 37.9026 4.53667 38.1502 4.77847L42.8501 9.32181C43.1003 9.56111 43.2657 9.87081 43.3225 10.2065C43.3794 10.5422 43.3249 10.8868 43.1668 11.1907L40.8668 15.6374C41.0335 15.9918 41.1835 16.3301 41.3168 16.6846L46.2001 18.2957C46.5232 18.401 46.8051 18.5996 47.0077 18.8647C47.2104 19.1297 47.3241 19.4485 47.3335 19.7779V26.2224C47.3344 26.5601 47.2255 26.8896 47.0221 27.1643C46.8187 27.4389 46.5312 27.6448 46.2001 27.7529L41.3168 29.364C41.1835 29.7185 41.0335 30.0568 40.8668 30.4113L43.1668 34.8579C43.3249 35.1619 43.3794 35.5064 43.3225 35.8421C43.2657 36.1778 43.1003 36.4875 42.8501 36.7268L38.1502 41.2701C37.9026 41.5119 37.5822 41.6718 37.2349 41.7268C36.8876 41.7818 36.5312 41.7291 36.2168 41.5763L31.6168 39.3529C31.2668 39.514 30.9002 39.659 30.5335 39.7879L28.8668 44.5085C28.7497 44.8117 28.5407 45.0738 28.2672 45.2606C27.9937 45.4474 27.6683 45.5503 27.3335 45.5557ZM21.8668 42.3335H26.1335L27.6335 37.9674C27.7171 37.7295 27.8571 37.5138 28.0423 37.3376C28.2275 37.1614 28.4528 37.0294 28.7001 36.9524C29.4492 36.715 30.179 36.4242 30.8835 36.0824C31.1161 35.969 31.373 35.91 31.6335 35.91C31.894 35.91 32.1509 35.969 32.3835 36.0824L36.6335 38.1446L39.6502 35.2285L37.5168 31.0557C37.3969 30.8287 37.3343 30.5775 37.3343 30.3226C37.3343 30.0678 37.3969 29.8165 37.5168 29.5896C37.8729 28.9152 38.1738 28.2149 38.4168 27.4951C38.4966 27.256 38.633 27.0383 38.8153 26.8592C38.9977 26.6802 39.2208 26.5449 39.4668 26.464L43.9835 25.014V20.9379L39.4668 19.4879C39.2208 19.4071 38.9977 19.2717 38.8153 19.0927C38.633 18.9137 38.4966 18.6959 38.4168 18.4568C38.1738 17.737 37.8729 17.0367 37.5168 16.3624C37.3969 16.1354 37.3343 15.8842 37.3343 15.6293C37.3343 15.3744 37.3969 15.1232 37.5168 14.8963L39.6502 10.7879L36.6335 7.87181L32.3335 9.93403C32.1009 10.0473 31.844 10.1064 31.5835 10.1064C31.323 10.1064 31.0661 10.0473 30.8335 9.93403C30.129 9.59217 29.3992 9.30137 28.6502 9.06403C28.401 8.98534 28.1746 8.85097 27.9892 8.67181C27.8039 8.49265 27.6649 8.27376 27.5835 8.03292L26.1335 3.66681H21.8668L20.3668 8.01681C20.2854 8.25765 20.1464 8.47654 19.9611 8.6557C19.7757 8.83486 19.5493 8.96923 19.3001 9.04792C18.5511 9.28526 17.8213 9.57606 17.1168 9.91792C16.8842 10.0312 16.6273 10.0903 16.3668 10.0903C16.1063 10.0903 15.8494 10.0312 15.6168 9.91792L11.3668 7.87181L8.35015 10.7879L10.4835 14.9446C10.6034 15.1715 10.666 15.4228 10.666 15.6776C10.666 15.9325 10.6034 16.1837 10.4835 16.4107C10.1274 17.0851 9.82646 17.7853 9.58348 18.5051C9.50375 18.7442 9.36727 18.962 9.18496 19.141C9.00265 19.3201 8.77955 19.4554 8.53348 19.5363L4.00015 20.9379V25.0624L8.51682 26.5124C8.76288 26.5932 8.98598 26.7285 9.16829 26.9076C9.3506 27.0866 9.48708 27.3044 9.56682 27.5435C9.80979 28.2633 10.1107 28.9636 10.4668 29.6379C10.5868 29.8649 10.6493 30.1161 10.6493 30.371C10.6493 30.6258 10.5868 30.8771 10.4668 31.104L8.35015 35.2124L11.3668 38.1285L15.6668 36.0663C15.8994 35.9529 16.1563 35.8939 16.4168 35.8939C16.6773 35.8939 16.9342 35.9529 17.1668 36.0663C17.8713 36.4081 18.6011 36.6989 19.3502 36.9363C19.5975 37.0133 19.8228 37.1453 20.008 37.3215C20.1932 37.4977 20.3332 37.7134 20.4168 37.9513L21.8668 42.3335ZM24.0002 31.0557C22.352 31.0557 20.7408 30.5832 19.3704 29.6981C18 28.8129 16.9319 27.5548 16.3012 26.0829C15.6704 24.6109 15.5054 22.9912 15.8269 21.4286C16.1485 19.866 16.9422 18.4306 18.1076 17.304C19.273 16.1774 20.7579 15.4102 22.3744 15.0994C23.9909 14.7885 25.6665 14.9481 27.1892 15.5578C28.7119 16.1675 30.0134 17.2 30.9291 18.5247C31.8447 19.8494 32.3335 21.4069 32.3335 23.0001C32.3335 24.058 32.1179 25.1055 31.6991 26.0829C31.2804 27.0602 30.6665 27.9483 29.8927 28.6963C29.1189 29.4443 28.2002 30.0377 27.1892 30.4425C26.1781 30.8473 25.0945 31.0557 24.0002 31.0557ZM24.0002 18.1668C23.0112 18.1668 22.0445 18.4503 21.2223 18.9814C20.4001 19.5125 19.7592 20.2673 19.3808 21.1505C19.0023 22.0337 18.9033 23.0055 19.0962 23.9431C19.2892 24.8807 19.7654 25.7419 20.4646 26.4178C21.1639 27.0938 22.0548 27.5541 23.0247 27.7406C23.9946 27.9271 24.9999 27.8314 25.9136 27.4656C26.8272 27.0997 27.6081 26.4802 28.1575 25.6854C28.7069 24.8906 29.0002 23.9561 29.0002 23.0001C29.0002 21.7183 28.4734 20.4889 27.5357 19.5825C26.598 18.676 25.3262 18.1668 24.0002 18.1668Z" fill="#fff"/></svg>