<svg viewBox="0 0 27 27" fill="none" xmlns="http://www.w3.org/2000/svg">
<circle cx="13.1688" cy="13.8046" r="9.88269" stroke="#00383D" stroke-width="6"/>
<mask id="path-2-inside-1_386_5144" fill="white">
<path d="M26.0515 13.8046C26.0515 12.1128 25.7183 10.4376 25.0709 8.87457C24.4235 7.31157 23.4745 5.8914 22.2783 4.69513C21.082 3.49886 19.6618 2.54993 18.0988 1.90251C16.5358 1.2551 14.8606 0.921875 13.1688 0.921875L13.1688 13.8046H26.0515Z"/>
</mask>
<path d="M26.0515 13.8046C26.0515 12.1128 25.7183 10.4376 25.0709 8.87457C24.4235 7.31157 23.4745 5.8914 22.2783 4.69513C21.082 3.49886 19.6618 2.54993 18.0988 1.90251C16.5358 1.2551 14.8606 0.921875 13.1688 0.921875L13.1688 13.8046H26.0515Z" fill="#BCDB73" stroke="#97C5CA" stroke-width="12" mask="url(#path-2-inside-1_386_5144)"/>
<circle cx="13.1686" cy="13.8058" r="8.15345" fill="white"/>
</svg>
