<svg id="Layer_1" enable-background="new 0 0 510 510" height="512" viewBox="0 0 510 510" width="512" xmlns="http://www.w3.org/2000/svg"><path d="m480 390v-390h-30v60h-152.58c-14.183-39.762-70.673-39.737-84.84 0h-35.16c-14.183-39.762-70.673-39.737-84.84 0h-32.58v-60h-30v390h-30v120h510v-120zm-182.58-90c-14.183-39.762-70.673-39.737-84.84 0h-35.16c-14.183-39.762-70.673-39.737-84.84 0h-32.58v-90h152.58c14.183 39.762 70.673 39.737 84.84 0h35.16c14.183 39.762 70.673 39.737 84.84 0h32.58v90zm-27.42 15c0 8.272-6.729 15-15 15-19.9-.824-19.894-29.179 0-30 8.271 0 15 6.729 15 15zm-120 0c0 8.272-6.729 15-15 15-19.9-.824-19.894-29.179 0-30 8.271 0 15 6.729 15 15zm90-120c0-8.271 6.729-15 15-15 19.9.823 19.894 29.18 0 30-8.271 0-15-6.729-15-15zm120 0c0-8.271 6.728-15 15-15 19.9.823 19.894 29.18 0 30-8.272 0-15-6.729-15-15zm-105-135c8.271 0 15 6.729 15 15-.823 19.9-29.179 19.894-30 0 0-8.271 6.729-15 15-15zm-120 0c8.271 0 15 6.729 15 15-.824 19.9-29.179 19.894-30 0 0-8.271 6.729-15 15-15zm-42.42 30c14.183 39.762 70.673 39.737 84.84 0h35.16c14.183 39.762 70.673 39.737 84.84 0h152.58v90h-32.58c-14.183-39.762-70.673-39.737-84.84 0h-35.16c-14.183-39.762-70.673-39.737-84.84 0h-152.58v-90zm-32.58 240h32.58c14.183 39.762 70.673 39.737 84.84 0h35.16c14.183 39.762 70.673 39.737 84.84 0h152.58v60h-390zm420 150h-450v-60h450z"/></svg>