<svg viewBox="0 0 117 127" fill="none" xmlns="http://www.w3.org/2000/svg">
<path d="M73.5371 83.2617C68.0271 83.2617 63.5371 78.7717 63.5371 73.2617C63.5371 72.7117 63.9871 72.2617 64.5371 72.2617C65.0871 72.2617 65.5371 72.7117 65.5371 73.2617C65.5371 77.6717 69.1271 81.2617 73.5371 81.2617C74.0871 81.2617 74.5371 81.7117 74.5371 82.2617C74.5371 82.8117 74.0871 83.2617 73.5371 83.2617Z" fill="#00383D"/>
<path d="M114.917 109.123L97.1666 125.273C96.3466 126.013 95.0866 125.953 94.3366 125.143L68.1766 96.463C67.7866 96.043 67.6066 95.473 67.6666 94.903L69.3866 78.583C69.4966 77.563 70.3566 76.793 71.3766 76.793H87.2566C87.8166 76.793 88.3566 77.033 88.7366 77.443L115.067 106.293C115.807 107.113 115.747 108.373 114.937 109.123H114.917Z" fill="#96D680"/>
<path d="M95.8169 126.791C95.8169 126.791 95.7169 126.791 95.6769 126.791C94.8769 126.751 94.1369 126.401 93.5969 125.811L67.4369 97.1312C66.8569 96.5012 66.5769 95.6413 66.6669 94.7913L68.3869 78.4713C68.5469 76.9413 69.8269 75.7812 71.3669 75.7812H87.2469C88.0869 75.7812 88.8969 76.1413 89.4669 76.7613L115.787 105.611C116.327 106.201 116.607 106.971 116.567 107.771C116.527 108.571 116.177 109.311 115.587 109.851L97.8369 126.001C97.2769 126.511 96.5669 126.781 95.8169 126.781V126.791ZM71.3669 77.7913C70.8569 77.7913 70.4269 78.1713 70.3669 78.6913L68.6469 95.0113C68.6169 95.2913 68.7069 95.5813 68.9069 95.7913L95.0669 124.471C95.2469 124.671 95.4969 124.781 95.7569 124.801C96.0269 124.821 96.2769 124.721 96.4769 124.541L114.227 108.391C114.427 108.211 114.537 107.961 114.557 107.701C114.567 107.431 114.477 107.181 114.297 106.981L87.9769 78.1312C87.7869 77.9212 87.5169 77.8013 87.2369 77.8013H71.3569L71.3669 77.7913Z" fill="#00383D"/>
<path d="M77.3073 97.0203C77.0373 97.0203 76.7673 96.9103 76.5673 96.6903C76.1973 96.2803 76.2273 95.6503 76.6373 95.2803L86.9973 85.8603C87.4073 85.4903 88.0373 85.5203 88.4073 85.9303C88.7773 86.3403 88.7473 86.9703 88.3373 87.3403L77.9773 96.7603C77.7873 96.9303 77.5473 97.0203 77.3073 97.0203Z" fill="#00383D"/>
<path d="M84.0375 104.41C83.4975 104.41 83.0575 103.98 83.0375 103.44L82.7275 92.9102C82.7275 92.6202 82.8375 92.3502 83.0375 92.1502C83.2475 91.9502 83.5275 91.8502 83.8075 91.8802L94.2675 92.7602C94.8175 92.8102 95.2275 93.2902 95.1775 93.8402C95.1275 94.3902 94.6475 94.8202 94.0975 94.7502L84.7575 93.9602L85.0375 103.37C85.0575 103.92 84.6175 104.38 84.0675 104.4H84.0375V104.41Z" fill="#00383D"/>
<path d="M86.7272 107.372C86.4572 107.372 86.1872 107.262 85.9872 107.042C85.6172 106.632 85.6472 106.002 86.0572 105.632L96.4072 96.2118C96.8172 95.8418 97.4472 95.8718 97.8172 96.2818C98.1872 96.6918 98.1572 97.3218 97.7472 97.6918L87.3972 107.112C87.2072 107.282 86.9672 107.372 86.7272 107.372Z" fill="#00383D"/>
<path d="M98.8672 108.612C97.6472 108.612 96.4272 108.112 95.5372 107.142L91.1572 102.332C90.9772 102.132 90.8872 101.872 90.8972 101.612C90.9072 101.342 91.0272 101.102 91.2272 100.922L96.4072 96.2118C96.8172 95.8418 97.4472 95.8718 97.8172 96.2818L102.197 101.092C103.867 102.922 103.737 105.782 101.897 107.452C101.037 108.232 99.9472 108.622 98.8672 108.622V108.612ZM93.3172 101.732L97.0172 105.802C97.4672 106.292 98.0772 106.582 98.7472 106.612C99.4272 106.642 100.057 106.412 100.547 105.962C101.567 105.032 101.637 103.452 100.717 102.432L97.0172 98.3618L93.3172 101.732Z" fill="#00383D"/>
<path d="M93.4575 114.771C93.4575 114.771 93.4275 114.771 93.4075 114.771C92.8575 114.741 92.4275 114.281 92.4575 113.721L92.9275 103.831C92.9575 103.281 93.4175 102.841 93.9775 102.881C94.5275 102.911 94.9575 103.371 94.9275 103.931L94.4575 113.821C94.4275 114.361 93.9875 114.771 93.4575 114.771Z" fill="#00383D"/>
<path d="M73.5371 83.2633C72.9871 83.2633 72.5371 82.8133 72.5371 82.2633C72.5371 81.7133 72.9871 81.2633 73.5371 81.2633C77.6671 81.2633 81.1671 78.0433 81.5071 73.9333C81.5571 73.3833 82.0271 72.9833 82.5871 73.0133C83.1371 73.0633 83.5471 73.5433 83.5071 74.0933C83.0871 79.2333 78.7071 83.2633 73.5371 83.2633Z" fill="#00383D"/>
<path d="M59.5674 6.79297H65.5674C66.1174 6.79297 66.5674 7.24297 66.5674 7.79297V22.793H58.5674V7.79297C58.5674 7.24297 59.0174 6.79297 59.5674 6.79297Z" fill="#968678"/>
<path d="M66.5674 23.793H58.5674C58.0174 23.793 57.5674 23.343 57.5674 22.793V7.79297C57.5674 6.69297 58.4674 5.79297 59.5674 5.79297H65.5674C66.6674 5.79297 67.5674 6.69297 67.5674 7.79297V22.793C67.5674 23.343 67.1174 23.793 66.5674 23.793ZM59.5674 21.793H65.5674V7.79297H59.5674V21.793Z" fill="#00383D"/>
<path d="M38.2974 2.25047L5.56738 29.2005V70.7905C5.56738 71.8905 6.46738 72.7905 7.56738 72.7905H71.5674C72.6674 72.7905 73.5674 71.8905 73.5674 70.7905V29.2005L40.8374 2.25047C40.0974 1.64047 39.0374 1.64047 38.2974 2.25047Z" fill="#C5686A"/>
<path d="M71.5674 73.7916H7.56738C5.91738 73.7916 4.56738 72.4416 4.56738 70.7916V29.2016C4.56738 28.9016 4.69738 28.6216 4.92738 28.4316L37.6574 1.47156C38.7674 0.561562 40.3674 0.561562 41.4674 1.47156L74.1974 28.4216C74.4274 28.6116 74.5574 28.8916 74.5574 29.1916V70.7816C74.5574 72.4316 73.2074 73.7816 71.5574 73.7816L71.5674 73.7916ZM6.56738 29.6716V70.7916C6.56738 71.3416 7.01738 71.7916 7.56738 71.7916H71.5674C72.1174 71.7916 72.5674 71.3416 72.5674 70.7916V29.6716L40.2074 3.02156C39.8374 2.72156 39.3074 2.72156 38.9374 3.02156L6.57738 29.6716H6.56738Z" fill="#00383D"/>
<path d="M1.56729 33.2021C1.26729 33.2021 0.967289 33.0621 0.767289 32.8021C0.437289 32.3621 0.527294 31.7321 0.967294 31.4021L4.96729 28.4021C5.40729 28.0721 6.0373 28.1621 6.3673 28.6021C6.6973 29.0421 6.60729 29.6721 6.16729 30.0021L2.16729 33.0021C1.98729 33.1421 1.77729 33.2021 1.56729 33.2021Z" fill="#00383D"/>
<path d="M77.5673 33.2021C77.3573 33.2021 77.1473 33.1421 76.9673 33.0021L72.9673 30.0021C72.5273 29.6721 72.4373 29.0421 72.7673 28.6021C73.0973 28.1621 73.7273 28.0721 74.1673 28.4021L78.1673 31.4021C78.6073 31.7321 78.6973 32.3621 78.3673 32.8021C78.1673 33.0621 77.8673 33.2021 77.5673 33.2021Z" fill="#00383D"/>
<path d="M39.5674 24.793C42.3288 24.793 44.5674 22.5544 44.5674 19.793C44.5674 17.0315 42.3288 14.793 39.5674 14.793C36.806 14.793 34.5674 17.0315 34.5674 19.793C34.5674 22.5544 36.806 24.793 39.5674 24.793Z" fill="#CCEBF5"/>
<path d="M39.5674 25.793C36.2574 25.793 33.5674 23.103 33.5674 19.793C33.5674 16.483 36.2574 13.793 39.5674 13.793C42.8774 13.793 45.5674 16.483 45.5674 19.793C45.5674 23.103 42.8774 25.793 39.5674 25.793ZM39.5674 15.793C37.3574 15.793 35.5674 17.583 35.5674 19.793C35.5674 22.003 37.3574 23.793 39.5674 23.793C41.7774 23.793 43.5674 22.003 43.5674 19.793C43.5674 17.583 41.7774 15.793 39.5674 15.793Z" fill="#00383D"/>
<path d="M82.5376 75.0117C82.5376 75.0117 82.4876 75.0117 82.4576 75.0117C81.9076 74.9717 81.4976 74.4817 81.5376 73.9317C81.5576 73.7117 81.5676 73.4917 81.5676 73.2617C81.5676 68.8517 77.9776 65.2617 73.5676 65.2617C71.4276 65.2617 69.4176 66.0917 67.9076 67.6017C67.5176 67.9917 66.8876 67.9917 66.4976 67.6017C66.1076 67.2117 66.1076 66.5817 66.4976 66.1917C68.3876 64.3017 70.8976 63.2617 73.5676 63.2617C79.0776 63.2617 83.5676 67.7517 83.5676 73.2617C83.5676 73.5417 83.5576 73.8117 83.5376 74.0917C83.4976 74.6117 83.0576 75.0117 82.5376 75.0117Z" fill="#00383D"/>
<path d="M33.5674 42.793H45.5674C46.1174 42.793 46.5674 43.243 46.5674 43.793V72.793H32.5674V43.793C32.5674 43.243 33.0174 42.793 33.5674 42.793Z" fill="#F9CA4F"/>
<path d="M46.5674 73.793H32.5674C32.0174 73.793 31.5674 73.343 31.5674 72.793V43.793C31.5674 42.693 32.4674 41.793 33.5674 41.793H45.5674C46.6674 41.793 47.5674 42.693 47.5674 43.793V72.793C47.5674 73.343 47.1174 73.793 46.5674 73.793ZM33.5674 71.793H45.5674V43.793H33.5674V71.793Z" fill="#00383D"/>
<path d="M23.5674 42.793H13.5674C13.0151 42.793 12.5674 43.2407 12.5674 43.793V55.793C12.5674 56.3453 13.0151 56.793 13.5674 56.793H23.5674C24.1197 56.793 24.5674 56.3453 24.5674 55.793V43.793C24.5674 43.2407 24.1197 42.793 23.5674 42.793Z" fill="#CCEBF5"/>
<path d="M23.5674 57.793H13.5674C12.4674 57.793 11.5674 56.893 11.5674 55.793V43.793C11.5674 42.693 12.4674 41.793 13.5674 41.793H23.5674C24.6674 41.793 25.5674 42.693 25.5674 43.793V55.793C25.5674 56.893 24.6674 57.793 23.5674 57.793ZM13.5674 43.793V55.793H23.5674V43.793H13.5674Z" fill="#00383D"/>
<path d="M65.5674 42.793H55.5674C55.0151 42.793 54.5674 43.2407 54.5674 43.793V55.793C54.5674 56.3453 55.0151 56.793 55.5674 56.793H65.5674C66.1197 56.793 66.5674 56.3453 66.5674 55.793V43.793C66.5674 43.2407 66.1197 42.793 65.5674 42.793Z" fill="#CCEBF5"/>
<path d="M65.5674 57.793H55.5674C54.4674 57.793 53.5674 56.893 53.5674 55.793V43.793C53.5674 42.693 54.4674 41.793 55.5674 41.793H65.5674C66.6674 41.793 67.5674 42.693 67.5674 43.793V55.793C67.5674 56.893 66.6674 57.793 65.5674 57.793ZM55.5674 43.793V55.793H65.5674V43.793H55.5674Z" fill="#00383D"/>
<path d="M38.5674 57.793H36.5674C36.0174 57.793 35.5674 57.343 35.5674 56.793C35.5674 56.243 36.0174 55.793 36.5674 55.793H38.5674C39.1174 55.793 39.5674 56.243 39.5674 56.793C39.5674 57.343 39.1174 57.793 38.5674 57.793Z" fill="#00383D"/>
</svg>
