<svg viewBox="0 0 60 60" fill="none" xmlns="http://www.w3.org/2000/svg"><path d="M51.6666 18.3333H31.0166L11.85 5.56663C11.4877 5.29415 11.0737 5.09842 10.6332 4.99142C10.1927 4.88441 9.73498 4.86838 9.28808 4.94429C8.84118 5.02021 8.41445 5.18648 8.034 5.43294C7.65355 5.67941 7.32737 6.00088 7.07539 6.3777C6.82342 6.75452 6.65096 7.17878 6.56854 7.62453C6.48613 8.07028 6.4955 8.52816 6.59608 8.97017C6.69666 9.41217 6.88634 9.82902 7.15352 10.1952C7.4207 10.5614 7.75976 10.8693 8.14998 11.1L18.9833 18.3333H8.33331C7.00723 18.3333 5.73546 18.8601 4.79778 19.7978C3.8601 20.7354 3.33331 22.0072 3.33331 23.3333V25C3.33261 26.0705 3.67551 27.1129 4.31156 27.974C4.94761 28.8351 5.84323 29.4693 6.86665 29.7833L9.58331 47.4333C9.76776 48.6225 10.3749 49.7053 11.2934 50.4829C12.2118 51.2606 13.38 51.6808 14.5833 51.6666H45.4666C46.67 51.6808 47.8381 51.2606 48.7566 50.4829C49.675 49.7053 50.2822 48.6225 50.4666 47.4333L53.1833 29.7833C54.1974 29.4605 55.082 28.8225 55.7085 27.9622C56.335 27.1019 56.6707 26.0642 56.6666 25V23.3333C56.6666 22.0072 56.1399 20.7354 55.2022 19.7978C54.2645 18.8601 52.9927 18.3333 51.6666 18.3333ZM47.1166 46.9166C47.0564 47.314 46.8545 47.6763 46.5482 47.9366C46.242 48.197 45.8519 48.3378 45.45 48.3333H14.5333C14.1314 48.3378 13.7413 48.197 13.4351 47.9366C13.1288 47.6763 12.9269 47.314 12.8666 46.9166L10.2833 30H49.7166L47.1166 46.9166ZM53.3333 25C53.3333 25.442 53.1577 25.8659 52.8452 26.1785C52.5326 26.491 52.1087 26.6666 51.6666 26.6666H8.33331C7.89129 26.6666 7.46736 26.491 7.1548 26.1785C6.84224 25.8659 6.66665 25.442 6.66665 25V23.3333C6.66665 22.8913 6.84224 22.4673 7.1548 22.1548C7.46736 21.8422 7.89129 21.6666 8.33331 21.6666H23.9833L28.15 24.4333C28.6515 24.7679 29.2344 24.9602 29.8366 24.9898C30.4388 25.0193 31.0377 24.885 31.5696 24.6011C32.1015 24.3172 32.5464 23.8944 32.857 23.3776C33.1676 22.8609 33.3322 22.2695 33.3333 21.6666H51.6666C52.1087 21.6666 52.5326 21.8422 52.8452 22.1548C53.1577 22.4673 53.3333 22.8913 53.3333 23.3333V25Z" fill="#84BD00"/><path d="M30 31.6667C29.558 31.6667 29.1341 31.8423 28.8215 32.1549C28.509 32.4675 28.3334 32.8914 28.3334 33.3334V45.0001C28.3334 45.4421 28.509 45.866 28.8215 46.1786C29.1341 46.4912 29.558 46.6667 30 46.6667C30.4421 46.6667 30.866 46.4912 31.1786 46.1786C31.4911 45.866 31.6667 45.4421 31.6667 45.0001V33.3334C31.6667 32.8914 31.4911 32.4675 31.1786 32.1549C30.866 31.8423 30.4421 31.6667 30 31.6667Z" fill="#84BD00"/><path d="M36.6667 31.6667C36.2247 31.6667 35.8008 31.8423 35.4882 32.1549C35.1757 32.4675 35.0001 32.8914 35.0001 33.3334V45.0001C35.0001 45.4421 35.1757 45.866 35.4882 46.1786C35.8008 46.4912 36.2247 46.6667 36.6667 46.6667C37.1088 46.6667 37.5327 46.4912 37.8452 46.1786C38.1578 45.866 38.3334 45.4421 38.3334 45.0001V33.3334C38.3334 32.8914 38.1578 32.4675 37.8452 32.1549C37.5327 31.8423 37.1088 31.6667 36.6667 31.6667Z" fill="#84BD00"/><path d="M43.3334 31.6667C42.8913 31.6667 42.4674 31.8423 42.1548 32.1549C41.8423 32.4675 41.6667 32.8914 41.6667 33.3334V45.0001C41.6667 45.4421 41.8423 45.866 42.1548 46.1786C42.4674 46.4912 42.8913 46.6667 43.3334 46.6667C43.7754 46.6667 44.1993 46.4912 44.5119 46.1786C44.8244 45.866 45 45.4421 45 45.0001V33.3334C45 32.8914 44.8244 32.4675 44.5119 32.1549C44.1993 31.8423 43.7754 31.6667 43.3334 31.6667Z" fill="#84BD00"/><path d="M23.3334 31.6667C22.8914 31.6667 22.4675 31.8423 22.1549 32.1549C21.8423 32.4675 21.6667 32.8914 21.6667 33.3334V45.0001C21.6667 45.4421 21.8423 45.866 22.1549 46.1786C22.4675 46.4912 22.8914 46.6667 23.3334 46.6667C23.7754 46.6667 24.1994 46.4912 24.5119 46.1786C24.8245 45.866 25.0001 45.4421 25.0001 45.0001V33.3334C25.0001 32.8914 24.8245 32.4675 24.5119 32.1549C24.1994 31.8423 23.7754 31.6667 23.3334 31.6667Z" fill="#84BD00"/><path d="M16.6667 31.6667C16.2246 31.6667 15.8007 31.8423 15.4882 32.1549C15.1756 32.4675 15 32.8914 15 33.3334V45.0001C15 45.4421 15.1756 45.866 15.4882 46.1786C15.8007 46.4912 16.2246 46.6667 16.6667 46.6667C17.1087 46.6667 17.5326 46.4912 17.8452 46.1786C18.1577 45.866 18.3333 45.4421 18.3333 45.0001V33.3334C18.3333 32.8914 18.1577 32.4675 17.8452 32.1549C17.5326 31.8423 17.1087 31.6667 16.6667 31.6667Z" fill="#84BD00"/></svg>