<svg viewBox="0 0 22 16" fill="none" xmlns="http://www.w3.org/2000/svg">
<path d="M20 0C19.4696 0 18.9609 0.210714 18.5858 0.585786C18.2107 0.960859 18 1.46957 18 2C18.0033 2.32489 18.0856 2.6441 18.24 2.93L15.07 8H15C14.6478 8.00366 14.3029 8.10025 14 8.28L10 6C10 5.46957 9.78929 4.96086 9.41421 4.58579C9.03914 4.21071 8.53043 4 8 4C7.46957 4 6.96086 4.21071 6.58579 4.58579C6.21071 4.96086 6 5.46957 6 6C6.00182 6.27119 6.05616 6.53947 6.16 6.79L2.23 12H2C1.60444 12 1.21776 12.1173 0.88886 12.3371C0.559962 12.5568 0.303617 12.8692 0.152242 13.2346C0.000866562 13.6001 -0.0387401 14.0022 0.0384303 14.3902C0.115601 14.7781 0.306082 15.1345 0.585787 15.4142C0.865492 15.6939 1.22186 15.8844 1.60982 15.9616C1.99778 16.0387 2.39992 15.9991 2.76537 15.8478C3.13082 15.6964 3.44318 15.44 3.66294 15.1111C3.8827 14.7822 4 14.3956 4 14C3.99818 13.7288 3.94385 13.4605 3.84 13.21L7.77 8H8C8.35217 7.99634 8.69713 7.89975 9 7.72L13 10C13 10.5304 13.2107 11.0391 13.5858 11.4142C13.9609 11.7893 14.4696 12 15 12C15.5304 12 16.0391 11.7893 16.4142 11.4142C16.7893 11.0391 17 10.5304 17 10C16.9967 9.67511 16.9144 9.3559 16.76 9.07L19.93 4H20C20.5304 4 21.0391 3.78929 21.4142 3.41421C21.7893 3.03914 22 2.53043 22 2C22 1.46957 21.7893 0.960859 21.4142 0.585786C21.0391 0.210714 20.5304 0 20 0Z" fill="#97C5CA"/>
</svg>
