<svg viewBox="0 0 18 18" xmlns="http://www.w3.org/2000/svg"><g clip-path="url(#clip0)"><path d="M14.4998 3.5L13.6998 13.8C13.5998 14.8 12.7998 15.5 11.8998 15.5H6.0998C5.0998 15.5 4.2998 14.8 4.2998 13.8L3.4998 3.5H14.4998ZM16.6998 1.5H14.4998H3.4998H1.2998L1.4998 3.7L2.2998 14C2.4998 16 4.0998 17.6 6.0998 17.6H11.8998C13.8998 17.6 15.5998 16 15.6998 14L16.4998 3.7L16.6998 1.5Z" fill="#00383D"/><path d="M7 6V13" stroke="#00383D" stroke-width="2" stroke-miterlimit="10" stroke-linecap="round" stroke-linejoin="round"/><path d="M11 6V13" stroke="#00383D" stroke-width="2" stroke-miterlimit="10" stroke-linecap="round" stroke-linejoin="round"/><path d="M1 2.5H17" stroke="#00383D" stroke-width="2" stroke-miterlimit="10" stroke-linecap="round" stroke-linejoin="round"/><path d="M12.5 3H5.5L6.6 0.6C6.8 0.2 7.1 0 7.5 0H10.4C10.8 0 11.1 0.2 11.3 0.6L12.5 3Z" fill="#00383D"/></g><defs><clipPath id="clip0"><rect width="18" height="17.5" fill="#00383D"/></clipPath></defs></svg>